# Made in Blockbench 5.1.4
mtllib cookedGameMeat.mtl

o 7-northFace
v 0.12499999999999983 -0.03125000000000004 -0.3125
v 0.12499999999999983 0.031249999999999944 -0.31249999999999983
v 0.1250000000000001 0.031249999999999938 0.3125
v 0.1250000000000001 -0.031250000000000056 0.3124999999999997
vt 0.625 0.90625
vt 0.625 0.96875
vt 0 0.96875
vt 0 0.90625
vn 1 9.466330862652145e-31 -4.777360477947855e-16
usemtl m_07e89c04-8156-8726-3aea-e70efde7f04b
f 1/1/1 2/2/1 3/3/1 4/4/1
o 7-eastFace
v 0.12500000000000006 0.03125 0.31250000000000006
v -0.12499999999999994 0.03125 0.31250000000000006
v -0.12499999999999994 -0.03125 0.31249999999999983
v 0.12500000000000006 -0.03125 0.31249999999999983
vt 0 1
vt 0.25 1
vt 0.25 0.9375
vt 0 0.9375
vn 1.2246467991473532e-16 -3.552713678800501e-15 1
usemtl m_07e89c04-8156-8726-3aea-e70efde7f04b
f 5/5/2 6/6/2 7/7/2 8/8/2
o 7-bottomFace
v 0.12500000000000003 -0.03125 0.31249999999999994
v -0.12499999999999996 -0.03125 0.31249999999999994
v -0.12500000000000003 -0.03125 -0.31250000000000006
v 0.12499999999999996 -0.03125 -0.31250000000000006
vt 0.90625 0.171875
vt 0.65625 0.171875
vt 0.65625 0.796875
vt 0.90625 0.796875
vn 0 -1 0
usemtl m_07e89c04-8156-8726-3aea-e70efde7f04b
f 9/9/3 10/10/3 11/11/3 12/12/3
o 7-topFace
v -0.12500000000000003 0.03125 -0.31250000000000006
v -0.12499999999999996 0.03125 0.31249999999999994
v 0.12500000000000003 0.03125 0.31249999999999994
v 0.12499999999999996 0.03125 -0.31250000000000006
vt 0.65625 0.796875
vt 0.65625 0.171875
vt 0.90625 0.171875
vt 0.90625 0.796875
vn 0 1 0
usemtl m_07e89c04-8156-8726-3aea-e70efde7f04b
f 13/13/4 14/14/4 15/15/4 16/16/4
o 7-westFace
v -0.12500000000000006 -0.03125 -0.31250000000000006
v -0.12500000000000006 0.03125 -0.31249999999999994
v 0.12499999999999994 0.03125 -0.31249999999999994
v 0.12499999999999994 -0.03125 -0.31250000000000006
vt 0.9375 0.8125
vt 0.9375 0.875
vt 0.6875 0.875
vt 0.6875 0.8125
vn -1.2246467991473532e-16 1.7763568394002505e-15 -1
usemtl m_07e89c04-8156-8726-3aea-e70efde7f04b
f 17/17/5 18/18/5 19/19/5 20/20/5
o 7-southFace
v -0.12499999999999994 0.03125 0.31249999999999994
v -0.125 0.03125 -0.31250000000000006
v -0.125 -0.03125 -0.31250000000000006
v -0.12499999999999994 -0.03125 0.31249999999999994
vt 0.03125 0.96875
vt 0.65625 0.96875
vt 0.65625 0.90625
vt 0.03125 0.90625
vn -1 0 1.2246467991473532e-16
usemtl m_07e89c04-8156-8726-3aea-e70efde7f04b
f 21/21/6 22/22/6 23/23/6 24/24/6