# Made in Blockbench 5.1.4
mtllib rot.mtl

o 19-northFace
v -0.25 -0.03125 0.25
v -0.25 0.03125 0.25
v -0.25 0.03125 -0.25
v -0.25 -0.03125 -0.25
vt 1 0.25
vt 1 0.3125
vt 0.5 0.3125
vt 0.5 0.25
vn -1 0 0
usemtl m_678883e8-19ce-9d12-129b-a84017e92c30
f 1/1/1 2/2/1 3/3/1 4/4/1
o 19-eastFace
v -0.25 0.03125 -0.25
v 0.25 0.03125 -0.25
v 0.25 -0.03125 -0.25
v -0.25 -0.03125 -0.25
vt 0 0.5625
vt 0.5 0.5625
vt 0.5 0.5
vt 0 0.5
vn 0 0 -1
usemtl m_678883e8-19ce-9d12-129b-a84017e92c30
f 5/5/2 6/6/2 7/7/2 8/8/2
o 19-bottomFace
v -0.25 -0.03125 -0.25
v 0.25 -0.03125 -0.25
v 0.25 -0.03125 0.25
v -0.25 -0.03125 0.25
vt 0 1
vt 0.5 1
vt 0.5 0.5
vt 0 0.5
vn 0 -1 0
usemtl m_678883e8-19ce-9d12-129b-a84017e92c30
f 9/9/3 10/10/3 11/11/3 12/12/3
o 19-topFace
v 0.25 0.03125 0.25
v 0.25 0.03125 -0.25
v -0.25 0.03125 -0.25
v -0.25 0.03125 0.25
vt 0.5 0.5
vt 0.5 1
vt 0 1
vt 0 0.5
vn 0 1 0
usemtl m_678883e8-19ce-9d12-129b-a84017e92c30
f 13/13/4 14/14/4 15/15/4 16/16/4
o 19-westFace
v 0.25 -0.03125 0.25
v 0.25 0.03125 0.25
v -0.25 0.03125 0.25
v -0.25 -0.03125 0.25
vt 1 0.9375
vt 1 1
vt 0.5 1
vt 0.5 0.9375
vn 0 0 1
usemtl m_678883e8-19ce-9d12-129b-a84017e92c30
f 17/17/5 18/18/5 19/19/5 20/20/5
o 19-southFace
v 0.25 0.03125 -0.25
v 0.25 0.03125 0.25
v 0.25 -0.03125 0.25
v 0.25 -0.03125 -0.25
vt 0 1
vt 0.5 1
vt 0.5 0.9375
vt 0 0.9375
vn 1 0 0
usemtl m_678883e8-19ce-9d12-129b-a84017e92c30
f 21/21/6 22/22/6 23/23/6 24/24/6
o 19-southFace
v 0.125 0.03125 0.25
v 0.125 0.03125 0.3125
v 0.125 -0.03125 0.3125
v 0.125 -0.03125 0.25
vt 0 0.0625
vt 0.0625 0.0625
vt 0.0625 0
vt 0 0
vn 1 0 0
usemtl m_678883e8-19ce-9d12-129b-a84017e92c30
f 25/25/7 26/26/7 27/27/7 28/28/7
o 19-westFace
v 0.125 -0.03125 0.3125
v 0.125 0.03125 0.3125
v -0.125 0.03125 0.3125
v -0.125 -0.03125 0.3125
vt 1 0
vt 1 0.0625
vt 0.75 0.0625
vt 0.75 0
vn 0 0 1
usemtl m_678883e8-19ce-9d12-129b-a84017e92c30
f 29/29/8 30/30/8 31/31/8 32/32/8
o 19-topFace
v 0.125 0.03125 0.3125
v 0.125 0.03125 0.25
v -0.125 0.03125 0.25
v -0.125 0.03125 0.3125
vt 0.25 0.9375
vt 0.25 1
vt 0 1
vt 0 0.9375
vn 0 1 0
usemtl m_678883e8-19ce-9d12-129b-a84017e92c30
f 33/33/9 34/34/9 35/35/9 36/36/9
o 19-bottomFace
v -0.125 -0.03125 0.25
v 0.125 -0.03125 0.25
v 0.125 -0.03125 0.3125
v -0.125 -0.03125 0.3125
vt 0.75 1
vt 1 1
vt 1 0.9375
vt 0.75 0.9375
vn 0 -1 0
usemtl m_678883e8-19ce-9d12-129b-a84017e92c30
f 37/37/10 38/38/10 39/39/10 40/40/10
o 19-eastFace
v -0.125 0.03125 0.25
v 0.125 0.03125 0.25
v 0.125 -0.03125 0.25
v -0.125 -0.03125 0.25
vt 0 0.0625
vt 0.25 0.0625
vt 0.25 0
vt 0 0
vn 0 0 -1
usemtl m_678883e8-19ce-9d12-129b-a84017e92c30
f 41/41/11 42/42/11 43/43/11 44/44/11
o 19-northFace
v -0.125 -0.03125 0.3125
v -0.125 0.03125 0.3125
v -0.125 0.03125 0.25
v -0.125 -0.03125 0.25
vt 1 0.9375
vt 1 1
vt 0.9375 1
vt 0.9375 0.9375
vn -1 0 0
usemtl m_678883e8-19ce-9d12-129b-a84017e92c30
f 45/45/12 46/46/12 47/47/12 48/48/12
o 19-southFace
v 0.125 0.03125 -0.3125
v 0.125 0.03125 -0.25
v 0.125 -0.03125 -0.25
v 0.125 -0.03125 -0.3125
vt 0.9375 1
vt 1 1
vt 1 0.9375
vt 0.9375 0.9375
vn 1 0 0
usemtl m_678883e8-19ce-9d12-129b-a84017e92c30
f 49/49/13 50/50/13 51/51/13 52/52/13
o 19-westFace
v 0.125 -0.03125 -0.25
v 0.125 0.03125 -0.25
v -0.125 0.03125 -0.25
v -0.125 -0.03125 -0.25
vt 1 0
vt 1 1
vt 0 1
vt 0 0
vn 0 0 1
usemtl m_678883e8-19ce-9d12-129b-a84017e92c30
f 53/53/14 54/54/14 55/55/14 56/56/14
o 19-topFace
v 0.125 0.03125 -0.25
v 0.125 0.03125 -0.3125
v -0.125 0.03125 -0.3125
v -0.125 0.03125 -0.25
vt 1 0.9375
vt 1 1
vt 0.75 1
vt 0.75 0.9375
vn 0 1 0
usemtl m_678883e8-19ce-9d12-129b-a84017e92c30
f 57/57/15 58/58/15 59/59/15 60/60/15
o 19-bottomFace
v -0.125 -0.03125 -0.3125
v 0.125 -0.03125 -0.3125
v 0.125 -0.03125 -0.25
v -0.125 -0.03125 -0.25
vt 0.75 1
vt 1 1
vt 1 0.9375
vt 0.75 0.9375
vn 0 -1 0
usemtl m_678883e8-19ce-9d12-129b-a84017e92c30
f 61/61/16 62/62/16 63/63/16 64/64/16
o 19-eastFace
v -0.125 0.03125 -0.3125
v 0.125 0.03125 -0.3125
v 0.125 -0.03125 -0.3125
v -0.125 -0.03125 -0.3125
vt 0.40625 0.0625
vt 0.65625 0.0625
vt 0.65625 0
vt 0.40625 0
vn 0 0 -1
usemtl m_678883e8-19ce-9d12-129b-a84017e92c30
f 65/65/17 66/66/17 67/67/17 68/68/17
o 19-northFace
v -0.125 -0.03125 -0.25
v -0.125 0.03125 -0.25
v -0.125 0.03125 -0.3125
v -0.125 -0.03125 -0.3125
vt 0.0625 0
vt 0.0625 0.0625
vt 0 0.0625
vt 0 0
vn -1 0 0
usemtl m_678883e8-19ce-9d12-129b-a84017e92c30
f 69/69/18 70/70/18 71/71/18 72/72/18
o 19-southFace
v 0.3125 0.03125 0.125
v 0.25 0.03125 0.125
v 0.25 -0.03125 0.125
v 0.3125 -0.03125 0.125
vt 0.9375 1
vt 1 1
vt 1 0.9375
vt 0.9375 0.9375
vn 2.220446049250313e-16 0 1
usemtl m_678883e8-19ce-9d12-129b-a84017e92c30
f 73/73/19 74/74/19 75/75/19 76/76/19
o 19-westFace
v 0.25 -0.03125 0.125
v 0.25 0.03125 0.125
v 0.24999999999999997 0.03125 -0.125
v 0.24999999999999997 -0.03125 -0.125
vt 1 0
vt 1 1
vt 0 1
vt 0 0
vn -1 0 2.220446049250313e-16
usemtl m_678883e8-19ce-9d12-129b-a84017e92c30
f 77/77/20 78/78/20 79/79/20 80/80/20
o 19-topFace
v 0.25 0.03125 0.125
v 0.3125 0.03125 0.125
v 0.3125 0.03125 -0.125
v 0.24999999999999997 0.03125 -0.125
vt 1 0.9375
vt 1 1
vt 0.75 1
vt 0.75 0.9375
vn 0 1 0
usemtl m_678883e8-19ce-9d12-129b-a84017e92c30
f 81/81/21 82/82/21 83/83/21 84/84/21
o 19-bottomFace
v 0.3125 -0.03125 -0.125
v 0.3125 -0.03125 0.125
v 0.25 -0.03125 0.125
v 0.24999999999999997 -0.03125 -0.125
vt 0.75 1
vt 1 1
vt 1 0.9375
vt 0.75 0.9375
vn 0 -1 0
usemtl m_678883e8-19ce-9d12-129b-a84017e92c30
f 85/85/22 86/86/22 87/87/22 88/88/22
o 19-eastFace
v 0.3125 0.03125 -0.125
v 0.3125 0.03125 0.125
v 0.3125 -0.03125 0.125
v 0.3125 -0.03125 -0.125
vt 0 0.0625
vt 0.25 0.0625
vt 0.25 0
vt 0 0
vn 1 0 -2.220446049250313e-16
usemtl m_678883e8-19ce-9d12-129b-a84017e92c30
f 89/89/23 90/90/23 91/91/23 92/92/23
o 19-northFace
v 0.24999999999999997 -0.03125 -0.125
v 0.24999999999999997 0.03125 -0.125
v 0.3125 0.03125 -0.125
v 0.3125 -0.03125 -0.125
vt 0.0625 0
vt 0.0625 0.0625
vt 0 0.0625
vt 0 0
vn -2.220446049250313e-16 0 -1
usemtl m_678883e8-19ce-9d12-129b-a84017e92c30
f 93/93/24 94/94/24 95/95/24 96/96/24
o 19-southFace
v -0.24999999999999997 0.03125 0.125
v -0.3125 0.03125 0.125
v -0.3125 -0.03125 0.125
v -0.24999999999999997 -0.03125 0.125
vt 0 1
vt 0.0625 1
vt 0.0625 0.9375
vt 0 0.9375
vn 2.220446049250313e-16 0 1
usemtl m_678883e8-19ce-9d12-129b-a84017e92c30
f 97/97/25 98/98/25 99/99/25 100/100/25
o 19-westFace
v -0.3125 -0.03125 0.125
v -0.3125 0.03125 0.125
v -0.3125 0.03125 -0.125
v -0.3125 -0.03125 -0.125
vt 1 0.9375
vt 1 1
vt 0.75 1
vt 0.75 0.9375
vn -1 0 2.220446049250313e-16
usemtl m_678883e8-19ce-9d12-129b-a84017e92c30
f 101/101/26 102/102/26 103/103/26 104/104/26
o 19-topFace
v -0.3125 0.03125 0.125
v -0.24999999999999997 0.03125 0.125
v -0.25 0.03125 -0.125
v -0.3125 0.03125 -0.125
vt 0.25 0.9375
vt 0.25 1
vt 0 1
vt 0 0.9375
vn 0 1 0
usemtl m_678883e8-19ce-9d12-129b-a84017e92c30
f 105/105/27 106/106/27 107/107/27 108/108/27
o 19-bottomFace
v -0.25 -0.03125 -0.125
v -0.24999999999999997 -0.03125 0.125
v -0.3125 -0.03125 0.125
v -0.3125 -0.03125 -0.125
vt 0 0.0625
vt 0.25 0.0625
vt 0.25 0
vt 0 0
vn 0 -1 0
usemtl m_678883e8-19ce-9d12-129b-a84017e92c30
f 109/109/28 110/110/28 111/111/28 112/112/28
o 19-eastFace
v -0.25 0.03125 -0.125
v -0.24999999999999997 0.03125 0.125
v -0.24999999999999997 -0.03125 0.125
v -0.25 -0.03125 -0.125
vt 0 1
vt 1 1
vt 1 0
vt 0 0
vn 1 0 -2.220446049250313e-16
usemtl m_678883e8-19ce-9d12-129b-a84017e92c30
f 113/113/29 114/114/29 115/115/29 116/116/29
o 19-northFace
v -0.3125 -0.03125 -0.125
v -0.3125 0.03125 -0.125
v -0.25 0.03125 -0.125
v -0.25 -0.03125 -0.125
vt 0.0625 0.9375
vt 0.0625 1
vt 0 1
vt 0 0.9375
vn -2.220446049250313e-16 0 -1
usemtl m_678883e8-19ce-9d12-129b-a84017e92c30
f 117/117/30 118/118/30 119/119/30 120/120/30
o 19-southFace
v 0.1875 0.09375 -0.1875
v 0.1875 0.09375 0.1875
v 0.1875 0.03125 0.1875
v 0.1875 0.03125 -0.1875
vt 0 1
vt 0.375 1
vt 0.375 0.9375
vt 0 0.9375
vn 1 0 0
usemtl m_678883e8-19ce-9d12-129b-a84017e92c30
f 121/121/31 122/122/31 123/123/31 124/124/31
o 19-westFace
v 0.1875 0.03125 0.1875
v 0.1875 0.09375 0.1875
v -0.1875 0.09375 0.1875
v -0.1875 0.03125 0.1875
vt 0.875 0.9375
vt 0.875 1
vt 0.5 1
vt 0.5 0.9375
vn 0 0 1
usemtl m_678883e8-19ce-9d12-129b-a84017e92c30
f 125/125/32 126/126/32 127/127/32 128/128/32
o 19-topFace
v 0.1875 0.09375 0.1875
v 0.1875 0.09375 -0.1875
v -0.1875 0.09375 -0.1875
v -0.1875 0.09375 0.1875
vt 0.53125 0.46875
vt 0.53125 0.84375
vt 0.15625 0.84375
vt 0.15625 0.46875
vn 0 1 0
usemtl m_678883e8-19ce-9d12-129b-a84017e92c30
f 129/129/33 130/130/33 131/131/33 132/132/33
o 19-bottomFace
v -0.1875 0.03125 -0.1875
v 0.1875 0.03125 -0.1875
v 0.1875 0.03125 0.1875
v -0.1875 0.03125 0.1875
vt 0.15625 0.375
vt 0.53125 0.375
vt 0.53125 0
vt 0.15625 0
vn 0 -1 0
usemtl m_678883e8-19ce-9d12-129b-a84017e92c30
f 133/133/34 134/134/34 135/135/34 136/136/34
o 19-eastFace
v -0.1875 0.09375 -0.1875
v 0.1875 0.09375 -0.1875
v 0.1875 0.03125 -0.1875
v -0.1875 0.03125 -0.1875
vt 0 0.53125
vt 0.375 0.53125
vt 0.375 0.46875
vt 0 0.46875
vn 0 0 -1
usemtl m_678883e8-19ce-9d12-129b-a84017e92c30
f 137/137/35 138/138/35 139/139/35 140/140/35
o 19-northFace
v -0.1875 0.03125 0.1875
v -0.1875 0.09375 0.1875
v -0.1875 0.09375 -0.1875
v -0.1875 0.03125 -0.1875
vt 0.546875 0
vt 0.546875 0.0625
vt 0.171875 0.0625
vt 0.171875 0
vn -1 0 0
usemtl m_678883e8-19ce-9d12-129b-a84017e92c30
f 141/141/36 142/142/36 143/143/36 144/144/36
o 19-southFace
v 0.09375 0.0625 -0.25
v 0.09375 0.0625 -0.1875
v 0.09375 0 -0.1875
v 0.09375 0 -0.25
vt 0.9375 1
vt 1 1
vt 1 0.9375
vt 0.9375 0.9375
vn 1 0 0
usemtl m_678883e8-19ce-9d12-129b-a84017e92c30
f 145/145/37 146/146/37 147/147/37 148/148/37
o 19-westFace
v 0.09375 0 -0.1875
v 0.09375 0.0625 -0.1875
v -0.09375 0.0625 -0.1875
v -0.09375 0 -0.1875
vt 1 0
vt 1 1
vt 0 1
vt 0 0
vn 0 0 1
usemtl m_678883e8-19ce-9d12-129b-a84017e92c30
f 149/149/38 150/150/38 151/151/38 152/152/38
o 19-topFace
v 0.09375 0.0625 -0.1875
v 0.09375 0.0625 -0.25
v -0.09375 0.0625 -0.25
v -0.09375 0.0625 -0.1875
vt 0.9375 0.9375
vt 0.9375 1
vt 0.75 1
vt 0.75 0.9375
vn 0 1 0
usemtl m_678883e8-19ce-9d12-129b-a84017e92c30
f 153/153/39 154/154/39 155/155/39 156/156/39
o 19-bottomFace
v -0.09375 0 -0.25
v 0.09375 0 -0.25
v 0.09375 0 -0.1875
v -0.09375 0 -0.1875
vt 0.75 1
vt 1 1
vt 1 0.9375
vt 0.75 0.9375
vn 0 -1 0
usemtl m_678883e8-19ce-9d12-129b-a84017e92c30
f 157/157/40 158/158/40 159/159/40 160/160/40
o 19-eastFace
v -0.09375 0.0625 -0.25
v 0.09375 0.0625 -0.25
v 0.09375 0 -0.25
v -0.09375 0 -0.25
vt 0.40625 0.0625
vt 0.59375 0.0625
vt 0.59375 0
vt 0.40625 0
vn 0 0 -1
usemtl m_678883e8-19ce-9d12-129b-a84017e92c30
f 161/161/41 162/162/41 163/163/41 164/164/41
o 19-northFace
v -0.09375 0 -0.1875
v -0.09375 0.0625 -0.1875
v -0.09375 0.0625 -0.25
v -0.09375 0 -0.25
vt 0.0625 0
vt 0.0625 0.0625
vt 0 0.0625
vt 0 0
vn -1 0 0
usemtl m_678883e8-19ce-9d12-129b-a84017e92c30
f 165/165/42 166/166/42 167/167/42 168/168/42
o 19-southFace
v 0.09375 0.0625 0.1875
v 0.09375 0.0625 0.25
v 0.09375 0 0.25
v 0.09375 0 0.1875
vt 0.9375 1
vt 1 1
vt 1 0.9375
vt 0.9375 0.9375
vn 1 0 0
usemtl m_678883e8-19ce-9d12-129b-a84017e92c30
f 169/169/43 170/170/43 171/171/43 172/172/43
o 19-westFace
v 0.09375 0 0.25
v 0.09375 0.0625 0.25
v -0.09375 0.0625 0.25
v -0.09375 0 0.25
vt 0.1875 0.4375
vt 0.1875 0.5
vt 0 0.5
vt 0 0.4375
vn 0 0 1
usemtl m_678883e8-19ce-9d12-129b-a84017e92c30
f 173/173/44 174/174/44 175/175/44 176/176/44
o 19-topFace
v 0.09375 0.0625 0.25
v 0.09375 0.0625 0.1875
v -0.09375 0.0625 0.1875
v -0.09375 0.0625 0.25
vt 0.9375 0.9375
vt 0.9375 1
vt 0.75 1
vt 0.75 0.9375
vn 0 1 0
usemtl m_678883e8-19ce-9d12-129b-a84017e92c30
f 177/177/45 178/178/45 179/179/45 180/180/45
o 19-bottomFace
v -0.09375 0 0.1875
v 0.09375 0 0.1875
v 0.09375 0 0.25
v -0.09375 0 0.25
vt 0.75 1
vt 1 1
vt 1 0.9375
vt 0.75 0.9375
vn 0 -1 0
usemtl m_678883e8-19ce-9d12-129b-a84017e92c30
f 181/181/46 182/182/46 183/183/46 184/184/46
o 19-eastFace
v -0.09375 0.0625 0.1875
v 0.09375 0.0625 0.1875
v 0.09375 0 0.1875
v -0.09375 0 0.1875
vt 0.40625 0.0625
vt 0.59375 0.0625
vt 0.59375 0
vt 0.40625 0
vn 0 0 -1
usemtl m_678883e8-19ce-9d12-129b-a84017e92c30
f 185/185/47 186/186/47 187/187/47 188/188/47
o 19-northFace
v -0.09375 0 0.25
v -0.09375 0.0625 0.25
v -0.09375 0.0625 0.1875
v -0.09375 0 0.1875
vt 0.0625 0
vt 0.0625 0.0625
vt 0 0.0625
vt 0 0
vn -1 0 0
usemtl m_678883e8-19ce-9d12-129b-a84017e92c30
f 189/189/48 190/190/48 191/191/48 192/192/48
o 19-southFace
v -0.18749999999999997 0.0625 0.09375
v -0.24999999999999997 0.0625 0.09375
v -0.24999999999999997 0 0.09375
v -0.18749999999999997 0 0.09375
vt 0.9375 1
vt 1 1
vt 1 0.9375
vt 0.9375 0.9375
vn 2.220446049250313e-16 0 1
usemtl m_678883e8-19ce-9d12-129b-a84017e92c30
f 193/193/49 194/194/49 195/195/49 196/196/49
o 19-westFace
v -0.24999999999999997 0 0.09375
v -0.24999999999999997 0.0625 0.09375
v -0.25 0.0625 -0.09375
v -0.25 0 -0.09375
vt 0.1875 0.4375
vt 0.1875 0.5
vt 0 0.5
vt 0 0.4375
vn -1 0 2.220446049250313e-16
usemtl m_678883e8-19ce-9d12-129b-a84017e92c30
f 197/197/50 198/198/50 199/199/50 200/200/50
o 19-topFace
v -0.24999999999999997 0.0625 0.09375
v -0.18749999999999997 0.0625 0.09375
v -0.18750000000000003 0.0625 -0.09375
v -0.25 0.0625 -0.09375
vt 0.9375 0.9375
vt 0.9375 1
vt 0.75 1
vt 0.75 0.9375
vn 0 1 0
usemtl m_678883e8-19ce-9d12-129b-a84017e92c30
f 201/201/51 202/202/51 203/203/51 204/204/51
o 19-bottomFace
v -0.18750000000000003 0 -0.09375
v -0.18749999999999997 0 0.09375
v -0.24999999999999997 0 0.09375
v -0.25 0 -0.09375
vt 0.75 1
vt 1 1
vt 1 0.9375
vt 0.75 0.9375
vn 0 -1 0
usemtl m_678883e8-19ce-9d12-129b-a84017e92c30
f 205/205/52 206/206/52 207/207/52 208/208/52
o 19-eastFace
v -0.18750000000000003 0.0625 -0.09375
v -0.18749999999999997 0.0625 0.09375
v -0.18749999999999997 0 0.09375
v -0.18750000000000003 0 -0.09375
vt 0.40625 0.0625
vt 0.59375 0.0625
vt 0.59375 0
vt 0.40625 0
vn 1 0 -2.220446049250313e-16
usemtl m_678883e8-19ce-9d12-129b-a84017e92c30
f 209/209/53 210/210/53 211/211/53 212/212/53
o 19-northFace
v -0.25 0 -0.09375
v -0.25 0.0625 -0.09375
v -0.18750000000000003 0.0625 -0.09375
v -0.18750000000000003 0 -0.09375
vt 0.0625 0
vt 0.0625 0.0625
vt 0 0.0625
vt 0 0
vn -2.220446049250313e-16 0 -1
usemtl m_678883e8-19ce-9d12-129b-a84017e92c30
f 213/213/54 214/214/54 215/215/54 216/216/54
o 19-southFace
v 0.25 0.0625 0.09375
v 0.18750000000000003 0.0625 0.09375
v 0.18750000000000003 0 0.09375
v 0.25 0 0.09375
vt 0.9375 1
vt 1 1
vt 1 0.9375
vt 0.9375 0.9375
vn 2.220446049250313e-16 0 1
usemtl m_678883e8-19ce-9d12-129b-a84017e92c30
f 217/217/55 218/218/55 219/219/55 220/220/55
o 19-westFace
v 0.18750000000000003 0 0.09375
v 0.18750000000000003 0.0625 0.09375
v 0.18749999999999997 0.0625 -0.09375
v 0.18749999999999997 0 -0.09375
vt 0.1875 0.4375
vt 0.1875 0.5
vt 0 0.5
vt 0 0.4375
vn -1 0 2.220446049250313e-16
usemtl m_678883e8-19ce-9d12-129b-a84017e92c30
f 221/221/56 222/222/56 223/223/56 224/224/56
o 19-topFace
v 0.18750000000000003 0.0625 0.09375
v 0.25 0.0625 0.09375
v 0.24999999999999997 0.0625 -0.09375
v 0.18749999999999997 0.0625 -0.09375
vt 0.9375 0.9375
vt 0.9375 1
vt 0.75 1
vt 0.75 0.9375
vn 0 1 0
usemtl m_678883e8-19ce-9d12-129b-a84017e92c30
f 225/225/57 226/226/57 227/227/57 228/228/57
o 19-bottomFace
v 0.24999999999999997 0 -0.09375
v 0.25 0 0.09375
v 0.18750000000000003 0 0.09375
v 0.18749999999999997 0 -0.09375
vt 0.75 1
vt 1 1
vt 1 0.9375
vt 0.75 0.9375
vn 0 -1 0
usemtl m_678883e8-19ce-9d12-129b-a84017e92c30
f 229/229/58 230/230/58 231/231/58 232/232/58
o 19-eastFace
v 0.24999999999999997 0.0625 -0.09375
v 0.25 0.0625 0.09375
v 0.25 0 0.09375
v 0.24999999999999997 0 -0.09375
vt 0.40625 0.0625
vt 0.59375 0.0625
vt 0.59375 0
vt 0.40625 0
vn 1 0 -2.220446049250313e-16
usemtl m_678883e8-19ce-9d12-129b-a84017e92c30
f 233/233/59 234/234/59 235/235/59 236/236/59
o 19-northFace
v 0.18749999999999997 0 -0.09375
v 0.18749999999999997 0.0625 -0.09375
v 0.24999999999999997 0.0625 -0.09375
v 0.24999999999999997 0 -0.09375
vt 0.0625 0
vt 0.0625 0.0625
vt 0 0.0625
vt 0 0
vn -2.220446049250313e-16 0 -1
usemtl m_678883e8-19ce-9d12-129b-a84017e92c30
f 237/237/60 238/238/60 239/239/60 240/240/60