# Made in Blockbench 5.1.4
mtllib seedEinkornWheat.mtl

o 21-westFace
v 0.031249999999999986 0.14174682452694526 0.03124999999999989
v 0.062499999999999986 0.25000000000000006 0.062499999999999944
v -0.062499999999999986 0.25000000000000006 0.062499999999999944
v -0.031249999999999986 0.14174682452694526 0.031249999999999944
vt 0.09375 0
vt 0.125 0.11267499999999997
vt 0 0.11267499999999997
vt 0.03125 0
vn 0 -0.27735009811261485 0.9607689228305228
usemtl m_2e37c107-3afa-14e6-b621-9115d44527e0
f 1/1/1 2/2/1 3/3/1 4/4/1
o 21-eastFace
v -0.062499999999999986 0.25 -0.0625
v 0.062499999999999986 0.25 -0.0625
v 0.031249999999999986 0.14174682452694526 -0.03125
v -0.03125000000000003 0.14174682452694526 -0.031249999999999944
vt 0.125 0.11267500000000008
vt 0 0.11267500000000008
vt 0.03125 0
vt 0.09375 0
vn 0 -0.27735009811261474 -0.960768922830523
usemtl m_2e37c107-3afa-14e6-b621-9115d44527e0
f 5/5/2 6/6/2 7/7/2 8/8/2
o 21-northFace
v -0.03125 0.14174682452694518 0.031250000000000014
v -0.0625 0.24999999999999997 0.0625
v -0.06250000000000006 0.24999999999999994 -0.062499999999999986
v -0.031250000000000056 0.14174682452694512 -0.031249999999999965
vt 0.09375 0
vt 0.125 0.11267499999999997
vt 0 0.11267499999999997
vt 0.03125 0
vn -0.960768922830523 -0.27735009811261463 4.310886507293395e-16
usemtl m_2e37c107-3afa-14e6-b621-9115d44527e0
f 9/9/3 10/10/3 11/11/3 12/12/3
o 21-topFace
v 0.0625 0.25 0.0625
v 0.0625 0.25 -0.0625
v -0.0625 0.25 -0.0625
v -0.0625 0.25 0.0625
vt 1 0
vt 1 0.125
vt 0.875 0.125
vt 0.875 0
vn 0 1 0
usemtl m_2e37c107-3afa-14e6-b621-9115d44527e0
f 13/13/4 14/14/4 15/15/4 16/16/4
o 21-southFace
v 0.0625 0.24999999999999997 -0.0625
v 0.0625 0.24999999999999997 0.0625
v 0.03125 0.14174682452694515 0.03125
v 0.03125 0.14174682452694515 -0.03125
vt 0.125 0.11267499999999997
vt 0 0.11267499999999997
vt 0.03125 0
vt 0.09375 0
vn 0.9607689228305228 -0.2773500981126146 0
usemtl m_2e37c107-3afa-14e6-b621-9115d44527e0
f 17/17/5 18/18/5 19/19/5 20/20/5
o 21-westFace
v 0.0625 -0.109375 0.0625
v 0.0625 0.140625 0.062499999999999986
v -0.0625 0.140625 0.062499999999999986
v -0.0625 -0.109375 0.0625
vt 0.65625 0.34375
vt 0.65625 0.59375
vt 0.53125 0.59375
vt 0.53125 0.34375
vn 0 5.551115123125783e-17 1
usemtl m_2e37c107-3afa-14e6-b621-9115d44527e0
f 21/21/6 22/22/6 23/23/6 24/24/6
o 21-bottomFace
v -0.0625 -0.109375 -0.0625
v 0.0625 -0.109375 -0.0625
v 0.0625 -0.109375 0.0625
v -0.0625 -0.109375 0.0625
vt 0.875 0.875
vt 1 0.875
vt 1 1
vt 0.875 1
vn 0 -1 0
usemtl m_2e37c107-3afa-14e6-b621-9115d44527e0
f 25/25/7 26/26/7 27/27/7 28/28/7
o 21-topFace
v 0.0625 0.140625 0.0625
v 0.0625 0.140625 -0.0625
v -0.0625 0.140625 -0.0625
v -0.0625 0.140625 0.0625
vt 0.625 0
vt 0.625 0.125
vt 0.5 0.125
vt 0.5 0
vn 0 1 0
usemtl m_2e37c107-3afa-14e6-b621-9115d44527e0
f 29/29/8 30/30/8 31/31/8 32/32/8
o 21-southFace
v 0.0625 0.140625 -0.0625
v 0.0625 0.140625 0.0625
v 0.0625 -0.109375 0.0625
v 0.0625 -0.109375 -0.0625
vt 0.65625 0.59375
vt 0.53125 0.59375
vt 0.53125 0.34375
vt 0.65625 0.34375
vn 1 0 0
usemtl m_2e37c107-3afa-14e6-b621-9115d44527e0
f 33/33/9 34/34/9 35/35/9 36/36/9
o 21-eastFace
v -0.0625 0.140625 -0.06250000000000001
v 0.0625 0.140625 -0.06250000000000001
v 0.0625 -0.109375 -0.062499999999999986
v -0.0625 -0.109375 -0.062499999999999986
vt 0.65625 0.59375
vt 0.53125 0.59375
vt 0.53125 0.34375
vt 0.65625 0.34375
vn 0 -1.1102230246251565e-16 -1
usemtl m_2e37c107-3afa-14e6-b621-9115d44527e0
f 37/37/10 38/38/10 39/39/10 40/40/10
o 21-northFace
v -0.062499999999999986 -0.10937499999999997 0.0625
v -0.062499999999999986 0.140625 0.062499999999999986
v -0.06250000000000001 0.14062499999999997 -0.06250000000000001
v -0.06250000000000001 -0.10937500000000003 -0.062499999999999986
vt 0.65625 0.34375
vt 0.65625 0.59375
vt 0.53125 0.59375
vt 0.53125 0.34375
vn -1 1.2325951644078312e-32 2.2204460492503136e-16
usemtl m_2e37c107-3afa-14e6-b621-9115d44527e0
f 41/41/11 42/42/11 43/43/11 44/44/11
o 9-westFace
v 0.046875 0.140625 0.046875
v 0.046875 0.171875 0.046874999999999986
v -0.046875 0.171875 0.046874999999999986
v -0.046875 0.140625 0.046875
vt 0.09375 0
vt 0.09375 0.03125
vt 0 0.03125
vt 0 0
vn 0 4.440892098500626e-16 1
usemtl m_f9206186-9e2f-0a58-2dbd-08dc640df46b
f 45/45/12 46/46/12 47/47/12 48/48/12
o 9-eastFace
v -0.046875 0.171875 -0.046875000000000014
v 0.046875 0.171875 -0.046875000000000014
v 0.046875 0.140625 -0.046874999999999986
v -0.046875 0.140625 -0.046874999999999986
vt 0.09375 1
vt 0 1
vt 0 0.96875
vt 0.09375 0.96875
vn 0 -8.881784197001252e-16 -1
usemtl m_f9206186-9e2f-0a58-2dbd-08dc640df46b
f 49/49/13 50/50/13 51/51/13 52/52/13
o 9-northFace
v -0.046874999999999986 0.140625 0.046875
v -0.046874999999999986 0.171875 0.046874999999999986
v -0.046875000000000014 0.171875 -0.046875000000000014
v -0.046875000000000014 0.140625 -0.046874999999999986
vt 1 0.96875
vt 1 1
vt 0.90625 1
vt 0.90625 0.96875
vn -1 1.3147681753683532e-31 2.960594732333751e-16
usemtl m_f9206186-9e2f-0a58-2dbd-08dc640df46b
f 53/53/14 54/54/14 55/55/14 56/56/14
o 9-topFace
v 0.046875 0.171875 0.046875
v 0.046875 0.171875 -0.046875
v -0.046875 0.171875 -0.046875
v -0.046875 0.171875 0.046875
vt 1 0.90625
vt 1 1
vt 0.90625 1
vt 0.90625 0.90625
vn 0 1 0
usemtl m_f9206186-9e2f-0a58-2dbd-08dc640df46b
f 57/57/15 58/58/15 59/59/15 60/60/15
o 9-southFace
v 0.046875 0.171875 -0.046875
v 0.046875 0.171875 0.046875
v 0.046875 0.140625 0.046875
v 0.046875 0.140625 -0.046875
vt 1 0.03125
vt 0.90625 0.03125
vt 0.90625 0
vt 1 0
vn 1 0 0
usemtl m_f9206186-9e2f-0a58-2dbd-08dc640df46b
f 61/61/16 62/62/16 63/63/16 64/64/16