# Made in Blockbench 5.1.4
mtllib seedWildGrass.mtl

o 21-northFace
v -0.031249904228848574 0.14174662169760444 0.03125
v -0.06250005047305482 0.2499997127365274 0.0625
v -0.06250005047305482 0.2499997127365274 -0.0625
v -0.031249904228848574 0.14174662169760444 -0.03125
vt 0.09375 0
vt 0.125 0.11267499999999997
vt 0 0.11267499999999997
vt 0.03125 0
vn -0.9607685193223989 -0.27735149590194264 0
usemtl m_2e37c107-3afa-14e6-b621-9115d44527e0
f 1/1/1 2/2/1 3/3/1 4/4/1
o 21-eastFace
v -0.0625 0.24999984661839303 -0.06250016471862652
v 0.0625 0.24999984661839303 -0.06250016471862652
v 0.03125 0.14174675557947006 -0.03125001847442027
v -0.03125 0.14174675557947006 -0.03125001847442027
vt 0.125 0.11267499999999997
vt 0 0.11267499999999997
vt 0.03125 0
vt 0.09375 0
vn 0 -0.27735149590194264 -0.9607685193223989
usemtl m_2e37c107-3afa-14e6-b621-9115d44527e0
f 5/5/2 6/6/2 7/7/2 8/8/2
o 21-topFace
v 0.0625 0.25 0.0625
v 0.0625 0.25 -0.0625
v -0.0625 0.25 -0.0625
v -0.0625 0.25 0.0625
vt 1 0
vt 1 0.125
vt 0.875 0.125
vt 0.875 0
vn 0 1 0
usemtl m_2e37c107-3afa-14e6-b621-9115d44527e0
f 9/9/3 10/10/3 11/11/3 12/12/3
o 21-westFace
v 0.03125 0.14174689921120634 0.03124976969695542
v 0.0625 0.2499999902501293 0.06249991594116169
v -0.0625 0.2499999902501293 0.06249991594116169
v -0.03125 0.14174689921120634 0.03124976969695542
vt 0.09375 0
vt 0.125 0.11267499999999997
vt 0 0.11267499999999997
vt 0.03125 0
vn 0 -0.27735149590194264 0.9607685193223989
usemtl m_2e37c107-3afa-14e6-b621-9115d44527e0
f 13/13/4 14/14/4 15/15/4 16/16/4
o 21-southFace
v 0.06250005047305482 0.2499997127365274 -0.0625
v 0.06250005047305482 0.2499997127365274 0.0625
v 0.031249904228848574 0.14174662169760444 0.03125
v 0.031249904228848574 0.14174662169760444 -0.03125
vt 0.125 0.11267499999999997
vt 0 0.11267499999999997
vt 0.03125 0
vt 0.09375 0
vn 0.9607685193223989 -0.27735149590194264 0
usemtl m_2e37c107-3afa-14e6-b621-9115d44527e0
f 17/17/5 18/18/5 19/19/5 20/20/5
o 21-westFace
v 0.0625 -0.109375 0.0625
v 0.0625 0.140625 0.0625
v -0.0625 0.140625 0.0625
v -0.0625 -0.109375 0.0625
vt 0.53125 0.34375
vt 0.53125 0.59375
vt 0.40625 0.59375
vt 0.40625 0.34375
vn 0 0 1
usemtl m_2e37c107-3afa-14e6-b621-9115d44527e0
f 21/21/6 22/22/6 23/23/6 24/24/6
o 21-bottomFace
v -0.0625 -0.109375 -0.0625
v 0.0625 -0.109375 -0.0625
v 0.0625 -0.109375 0.0625
v -0.0625 -0.109375 0.0625
vt 0.875 0.875
vt 1 0.875
vt 1 1
vt 0.875 1
vn 0 -1 0
usemtl m_2e37c107-3afa-14e6-b621-9115d44527e0
f 25/25/7 26/26/7 27/27/7 28/28/7
o 21-eastFace
v -0.0625 0.140625 -0.0625
v 0.0625 0.140625 -0.0625
v 0.0625 -0.109375 -0.0625
v -0.0625 -0.109375 -0.0625
vt 0.53125 0.59375
vt 0.40625 0.59375
vt 0.40625 0.34375
vt 0.53125 0.34375
vn 0 0 -1
usemtl m_2e37c107-3afa-14e6-b621-9115d44527e0
f 29/29/8 30/30/8 31/31/8 32/32/8
o 21-northFace
v -0.0625 -0.109375 0.0625
v -0.0625 0.140625 0.0625
v -0.0625 0.140625 -0.0625
v -0.0625 -0.109375 -0.0625
vt 0.53125 0.34375
vt 0.53125 0.59375
vt 0.40625 0.59375
vt 0.40625 0.34375
vn -1 0 0
usemtl m_2e37c107-3afa-14e6-b621-9115d44527e0
f 33/33/9 34/34/9 35/35/9 36/36/9
o 21-topFace
v 0.0625 0.140625 0.0625
v 0.0625 0.140625 -0.0625
v -0.0625 0.140625 -0.0625
v -0.0625 0.140625 0.0625
vt 0.625 0
vt 0.625 0.125
vt 0.5 0.125
vt 0.5 0
vn 0 1 0
usemtl m_2e37c107-3afa-14e6-b621-9115d44527e0
f 37/37/10 38/38/10 39/39/10 40/40/10
o 21-southFace
v 0.0625 0.140625 -0.0625
v 0.0625 0.140625 0.0625
v 0.0625 -0.109375 0.0625
v 0.0625 -0.109375 -0.0625
vt 0.53125 0.59375
vt 0.40625 0.59375
vt 0.40625 0.34375
vt 0.53125 0.34375
vn 1 0 0
usemtl m_2e37c107-3afa-14e6-b621-9115d44527e0
f 41/41/11 42/42/11 43/43/11 44/44/11
o 9-westFace
v 0.046875 0.140625 0.046875
v 0.046875 0.171875 0.046875
v -0.046875 0.171875 0.046875
v -0.046875 0.140625 0.046875
vt 0.09375 0
vt 0.09375 0.03125
vt 0 0.03125
vt 0 0
vn 0 0 1
usemtl m_f9206186-9e2f-0a58-2dbd-08dc640df46b
f 45/45/12 46/46/12 47/47/12 48/48/12
o 9-eastFace
v -0.046875 0.171875 -0.046875
v 0.046875 0.171875 -0.046875
v 0.046875 0.140625 -0.046875
v -0.046875 0.140625 -0.046875
vt 0.09375 1
vt 0 1
vt 0 0.96875
vt 0.09375 0.96875
vn 0 0 -1
usemtl m_f9206186-9e2f-0a58-2dbd-08dc640df46b
f 49/49/13 50/50/13 51/51/13 52/52/13
o 9-northFace
v -0.046875 0.140625 0.046875
v -0.046875 0.171875 0.046875
v -0.046875 0.171875 -0.046875
v -0.046875 0.140625 -0.046875
vt 1 0.96875
vt 1 1
vt 0.90625 1
vt 0.90625 0.96875
vn -1 0 0
usemtl m_f9206186-9e2f-0a58-2dbd-08dc640df46b
f 53/53/14 54/54/14 55/55/14 56/56/14
o 9-topFace
v 0.046875 0.171875 0.046875
v 0.046875 0.171875 -0.046875
v -0.046875 0.171875 -0.046875
v -0.046875 0.171875 0.046875
vt 1 0.90625
vt 1 1
vt 0.90625 1
vt 0.90625 0.90625
vn 0 1 0
usemtl m_f9206186-9e2f-0a58-2dbd-08dc640df46b
f 57/57/15 58/58/15 59/59/15 60/60/15
o 9-southFace
v 0.046875 0.171875 -0.046875
v 0.046875 0.171875 0.046875
v 0.046875 0.140625 0.046875
v 0.046875 0.140625 -0.046875
vt 1 0.03125
vt 0.90625 0.03125
vt 0.90625 0
vt 1 0
vn 1 0 0
usemtl m_f9206186-9e2f-0a58-2dbd-08dc640df46b
f 61/61/16 62/62/16 63/63/16 64/64/16