# Made in Blockbench 5.1.4
mtllib stoneHoe.mtl

o 2-westFace
v -0.12500000000000006 0.46874999473164375 0.203125001317089
v 0.12499999999999994 0.46874999473164397 0.20312500131708894
v 0.12499999999999994 0.4687500052683562 -0.2968749986829109
v -0.12500000000000006 0.468750005268356 -0.2968749986829109
vt 0.5 0
vt 0.5 0.25
vt 0 0.25
vt 0 0
vn -8.326672672990572e-16 0.9999999999999998 2.1073424449902234e-8
usemtl none
f 1/1/1 2/2/1 3/3/1 4/4/1
o 2-northFace
v -0.12500000000000003 0.468750005268356 -0.2968749986829109
v 0.12499999999999994 0.4687500052683562 -0.2968749986829109
v 0.12500000000000003 0.3437500052683562 -0.29687500131708905
v -0.12499999999999997 0.34375000526835603 -0.296875001317089
vt 0.125 0
vt 0.125 0.25
vt 0 0.25
vt 0 0
vn -5.551116994821928e-17 2.107342522705835e-8 -0.9999999999999998
usemtl none
f 5/5/2 6/6/2 7/7/2 8/8/2
o 2-eastFace
v 0.12500000000000006 0.3437500052683562 -0.296875001317089
v 0.12500000000000006 0.343749994731644 0.20312499868291092
v -0.12499999999999994 0.3437499947316438 0.20312499868291092
v -0.12499999999999994 0.34375000526835603 -0.29687500131708894
vt 1 1
vt 0.5 1
vt 0.5 0.75
vt 1 0.75
vn 7.771561160677994e-16 -0.9999999999999998 -2.1073424449902234e-8
usemtl none
f 9/9/3 10/10/3 11/11/3 12/12/3
o 2-bottomFace
v -0.12499999999999994 0.34375000526835603 -0.296875001317089
v -0.12499999999999994 0.3437499947316438 0.20312499868291092
v -0.12500000000000006 0.46874999473164375 0.203125001317089
v -0.12500000000000006 0.468750005268356 -0.2968749986829109
vt 0.375 0.40625
vt 0.875 0.40625
vt 0.875 0.53125
vt 0.375 0.53125
vn -1 -8.326672684688672e-16 -1.7547150773985138e-23
usemtl none
f 13/13/4 14/14/4 15/15/4 16/16/4
o 2-topFace
v 0.12499999999999994 0.46874999473164397 0.203125001317089
v 0.12500000000000006 0.343749994731644 0.20312499868291092
v 0.12500000000000006 0.34375000526835625 -0.296875001317089
v 0.12499999999999994 0.4687500052683562 -0.2968749986829109
vt 0.5 0.875
vt 0.5 1
vt 0 1
vt 0 0.875
vn 1 8.326672684688672e-16 1.7547150773985138e-23
usemtl none
f 17/17/5 18/18/5 19/19/5 20/20/5
o 2-southFace
v 0.12500000000000006 0.343749994731644 0.20312499868291092
v 0.12499999999999994 0.46874999473164397 0.203125001317089
v -0.12500000000000006 0.46874999473164375 0.203125001317089
v -0.12499999999999994 0.3437499947316438 0.20312499868291092
vt 1 1
vt 0.875 1
vt 0.875 0.75
vt 1 0.75
vn 5.551116994821854e-17 -2.107342433887993e-8 0.9999999999999998
usemtl none
f 21/21/6 22/22/6 23/23/6 24/24/6
o 15-topFace
v -0.06249999999999999 -0.5 0.2656250000000001
v 0.0625 -0.5 0.2656250000000001
v 0.0625 0.5 0.2656249999999999
v -0.06249999999999999 0.5 0.2656249999999999
vt 0 0.000523750000000045
vt 0.1249959375 0
vt 0.1331125 0.99947625
vt 0.0081165625 1
vn 2.220446049250313e-16 2.220446049250313e-16 1
usemtl m_e6f14d5a-fb06-c1d1-be4c-79cc1ecf3c0f
f 25/25/7 26/26/7 27/27/7 28/28/7
o 15-bottomFace
v 0.06249999999999999 -0.5 0.2031250000000001
v -0.0625 -0.5 0.2031250000000001
v -0.0625 0.5 0.2031249999999999
v 0.06249999999999999 0.5 0.2031249999999999
vt 0.4415603125 0
vt 0.56655625 0.000523750000000045
vt 0.5584396875 1
vt 0.43344375 0.99947625
vn -2.220446049250313e-16 -2.220446049250313e-16 -1
usemtl m_e6f14d5a-fb06-c1d1-be4c-79cc1ecf3c0f
f 29/29/8 30/30/8 31/31/8 32/32/8
o 15-westFace
v -0.0625 -0.5 0.2031250000000001
v -0.06249999999999999 -0.5 0.2656250000000001
v -0.06249999999999999 0.5 0.2656249999999999
v -0.0625 0.5 0.2031249999999999
vt 0.9375 0
vt 1 0
vt 1 1
vt 0.9375 1
vn -1 0 2.220446049250313e-16
usemtl m_e6f14d5a-fb06-c1d1-be4c-79cc1ecf3c0f
f 33/33/9 34/34/9 35/35/9 36/36/9
o 15-eastFace
v 0.0625 -0.5 0.2656250000000001
v 0.06249999999999999 -0.5 0.2031250000000001
v 0.06249999999999999 0.5 0.2031249999999999
v 0.0625 0.5 0.2656249999999999
vt 0.625 0
vt 0.6875 0
vt 0.6875 1
vt 0.625 1
vn 1 0 -2.220446049250313e-16
usemtl m_e6f14d5a-fb06-c1d1-be4c-79cc1ecf3c0f
f 37/37/10 38/38/10 39/39/10 40/40/10
o 15-northFace
v -0.0625 0.5 0.2031249999999999
v -0.06249999999999999 0.5 0.2656249999999999
v 0.0625 0.5 0.2656249999999999
v 0.06249999999999999 0.5 0.2031249999999999
vt 0.125 0.5
vt 0.125 0.5625
vt 0 0.5625
vt 0 0.5
vn -4.930380657631324e-32 1 -2.220446049250313e-16
usemtl m_e6f14d5a-fb06-c1d1-be4c-79cc1ecf3c0f
f 41/41/11 42/42/11 43/43/11 44/44/11
o 15-southFace
v 0.06249999999999999 -0.5 0.2031250000000001
v 0.0625 -0.5 0.2656250000000001
v -0.06249999999999999 -0.5 0.2656250000000001
v -0.0625 -0.5 0.2031250000000001
vt 0.125 0.5
vt 0.125 0.5625
vt 0 0.5625
vt 0 0.5
vn 4.930380657631324e-32 -1 2.220446049250313e-16
usemtl m_e6f14d5a-fb06-c1d1-be4c-79cc1ecf3c0f
f 45/45/12 46/46/12 47/47/12 48/48/12
o 9-westFace
v -0.09375000000000001 0.4531249986829109 0.2968750003292723
v 0.09374999999999999 0.45312499868291106 0.2968750003292722
v 0.09374999999999999 0.4531250013170891 0.17187500032927228
v -0.09375000000000001 0.45312500131708894 0.17187500032927228
vt 1 0
vt 1 0.1875
vt 0.875 0.1875
vt 0.875 0
vn -8.69674701453229e-16 0.9999999999999998 2.1073424449902234e-8
usemtl m_aa3b9ec4-5819-4ae7-ce93-6d833ac9ade4
f 49/49/13 50/50/13 51/51/13 52/52/13
o 9-northFace
v -0.09374999999999999 0.45312500131708894 0.17187500032927228
v 0.09374999999999999 0.4531250013170891 0.17187500032927228
v 0.09374999999999999 0.4218750013170891 0.17187499967072772
v -0.09375000000000001 0.42187500131708894 0.17187499967072775
vt 0.53125 0.6875
vt 0.53125 0.875
vt 0.5 0.875
vt 0.5 0.6875
vn -5.551116994821932e-17 2.107342522705835e-8 -0.9999999999999998
usemtl m_aa3b9ec4-5819-4ae7-ce93-6d833ac9ade4
f 53/53/14 54/54/14 55/55/14 56/56/14
o 9-eastFace
v 0.09375000000000001 0.4218750013170891 0.17187499967072775
v 0.09375000000000001 0.42187499868291106 0.2968749996707277
v -0.09374999999999999 0.4218749986829109 0.2968749996707277
v -0.09374999999999999 0.42187500131708894 0.17187499967072778
vt 0.375 0.28125
vt 0.25 0.28125
vt 0.25 0.09375
vt 0.375 0.09375
vn 8.511709843761432e-16 -0.9999999999999998 -2.1073424449902234e-8
usemtl m_aa3b9ec4-5819-4ae7-ce93-6d833ac9ade4
f 57/57/15 58/58/15 59/59/15 60/60/15
o 9-bottomFace
v -0.09374999999999999 0.42187500131708894 0.17187499967072778
v -0.09374999999999999 0.4218749986829109 0.2968749996707277
v -0.09375000000000001 0.4531249986829109 0.2968750003292723
v -0.09375000000000001 0.45312500131708894 0.17187500032927228
vt 0 0.96875
vt 0.125 0.96875
vt 0.125 1
vt 0 1
vn -1 -8.326672684688672e-16 -1.7547150773985138e-23
usemtl m_aa3b9ec4-5819-4ae7-ce93-6d833ac9ade4
f 61/61/16 62/62/16 63/63/16 64/64/16
o 9-topFace
v 0.09374999999999999 0.45312499868291106 0.2968750003292722
v 0.09375000000000001 0.42187499868291106 0.2968749996707277
v 0.09375000000000001 0.4218750013170891 0.17187499967072775
v 0.09374999999999999 0.4531250013170891 0.17187500032927228
vt 0.34375 0.90625
vt 0.34375 0.9375
vt 0.21875 0.9375
vt 0.21875 0.90625
vn 1 8.326672684688672e-16 1.7547150773985138e-23
usemtl m_aa3b9ec4-5819-4ae7-ce93-6d833ac9ade4
f 65/65/17 66/66/17 67/67/17 68/68/17
o 9-southFace
v 0.09375000000000001 0.42187499868291106 0.2968749996707277
v 0.09374999999999999 0.45312499868291106 0.2968750003292722
v -0.09375000000000001 0.4531249986829109 0.2968750003292723
v -0.09374999999999999 0.4218749986829109 0.2968749996707277
vt 0.03125 1
vt 0 1
vt 0 0.8125
vt 0.03125 0.8125
vn 5.551116994821854e-17 -2.107342433887993e-8 0.9999999999999998
usemtl m_aa3b9ec4-5819-4ae7-ce93-6d833ac9ade4
f 69/69/18 70/70/18 71/71/18 72/72/18
o 9-westFace
v -0.09375000000000001 0.3906249986829109 0.2968750003292723
v 0.09374999999999999 0.39062499868291106 0.2968750003292722
v 0.09374999999999999 0.3906250013170891 0.17187500032927228
v -0.09375000000000001 0.39062500131708894 0.17187500032927228
vt 1 0
vt 1 0.1875
vt 0.875 0.1875
vt 0.875 0
vn -8.69674701453229e-16 0.9999999999999998 2.1073424449902234e-8
usemtl m_aa3b9ec4-5819-4ae7-ce93-6d833ac9ade4
f 73/73/19 74/74/19 75/75/19 76/76/19
o 9-northFace
v -0.09374999999999999 0.39062500131708894 0.17187500032927228
v 0.09374999999999999 0.3906250013170891 0.17187500032927228
v 0.09374999999999999 0.3593750013170891 0.17187499967072772
v -0.09375000000000001 0.35937500131708894 0.17187499967072775
vt 0.53125 0.6875
vt 0.53125 0.875
vt 0.5 0.875
vt 0.5 0.6875
vn -5.551116994821932e-17 2.107342522705835e-8 -0.9999999999999998
usemtl m_aa3b9ec4-5819-4ae7-ce93-6d833ac9ade4
f 77/77/20 78/78/20 79/79/20 80/80/20
o 9-eastFace
v 0.09375000000000001 0.3593750013170891 0.17187499967072775
v 0.09375000000000001 0.35937499868291106 0.2968749996707277
v -0.09374999999999999 0.3593749986829109 0.2968749996707277
v -0.09374999999999999 0.35937500131708894 0.17187499967072778
vt 0.375 0.28125
vt 0.25 0.28125
vt 0.25 0.09375
vt 0.375 0.09375
vn 8.511709843761432e-16 -0.9999999999999998 -2.1073424449902234e-8
usemtl m_aa3b9ec4-5819-4ae7-ce93-6d833ac9ade4
f 81/81/21 82/82/21 83/83/21 84/84/21
o 9-bottomFace
v -0.09374999999999999 0.35937500131708894 0.17187499967072778
v -0.09374999999999999 0.3593749986829109 0.2968749996707277
v -0.09375000000000001 0.3906249986829109 0.2968750003292723
v -0.09375000000000001 0.39062500131708894 0.17187500032927228
vt 0 0.96875
vt 0.125 0.96875
vt 0.125 1
vt 0 1
vn -1 -8.326672684688672e-16 -1.7547150773985138e-23
usemtl m_aa3b9ec4-5819-4ae7-ce93-6d833ac9ade4
f 85/85/22 86/86/22 87/87/22 88/88/22
o 9-topFace
v 0.09374999999999999 0.39062499868291106 0.2968750003292722
v 0.09375000000000001 0.35937499868291106 0.2968749996707277
v 0.09375000000000001 0.3593750013170891 0.17187499967072775
v 0.09374999999999999 0.3906250013170891 0.17187500032927228
vt 0.34375 0.90625
vt 0.34375 0.9375
vt 0.21875 0.9375
vt 0.21875 0.90625
vn 1 8.326672684688672e-16 1.7547150773985138e-23
usemtl m_aa3b9ec4-5819-4ae7-ce93-6d833ac9ade4
f 89/89/23 90/90/23 91/91/23 92/92/23
o 9-southFace
v 0.09375000000000001 0.35937499868291106 0.2968749996707277
v 0.09374999999999999 0.39062499868291106 0.2968750003292722
v -0.09375000000000001 0.3906249986829109 0.2968750003292723
v -0.09374999999999999 0.3593749986829109 0.2968749996707277
vt 0.03125 1
vt 0 1
vt 0 0.8125
vt 0.03125 0.8125
vn 5.551116994821854e-17 -2.107342433887993e-8 0.9999999999999998
usemtl m_aa3b9ec4-5819-4ae7-ce93-6d833ac9ade4
f 93/93/24 94/94/24 95/95/24 96/96/24