# Made in Blockbench 5.1.4
mtllib stoneFragments.mtl

o 2-westFace
v 0.28125 -0.34375 0.25
v 0.28125 -0.09375 0.2499999999999999
v 0.03125 -0.09375 0.2499999999999999
v 0.03125 -0.34375 0.25
vt 0.59375 0.625
vt 0.59375 0.875
vt 0.34375 0.875
vt 0.34375 0.625
vn 0 4.440892098500626e-16 1
usemtl m_e5856a7a-b351-8090-19b8-8ac72b847e58
f 1/1/1 2/2/1 3/3/1 4/4/1
o 2-southFace
v 0.28125 -0.09375 0
v 0.28125 -0.09375 0.25
v 0.28125 -0.34375 0.25
v 0.28125 -0.34375 0
vt 0.65625 0.96875
vt 0.90625 0.96875
vt 0.90625 0.71875
vt 0.65625 0.71875
vn 1 0 0
usemtl m_e5856a7a-b351-8090-19b8-8ac72b847e58
f 5/5/2 6/6/2 7/7/2 8/8/2
o 2-topFace
v 0.28125 -0.09375 0.25
v 0.28125 -0.09375 0
v 0.03125 -0.09375 0
v 0.03125 -0.09375 0.25
vt 0.75 0.34375
vt 0.75 0.59375
vt 0.5 0.59375
vt 0.5 0.34375
vn 0 1 0
usemtl m_e5856a7a-b351-8090-19b8-8ac72b847e58
f 9/9/3 10/10/3 11/11/3 12/12/3
o 2-northFace
v 0.03125000000000011 -0.34375 0.24999999999999994
v 0.03125000000000011 -0.09375000000000006 0.24999999999999992
v 0.03124999999999989 -0.09375000000000008 -5.551115123125783e-17
v 0.03124999999999989 -0.34375000000000006 0
vt 0.625 0
vt 0.625 0.25
vt 0.375 0.25
vt 0.375 0
vn -1 9.860761315262652e-32 8.881784197001254e-16
usemtl m_e5856a7a-b351-8090-19b8-8ac72b847e58
f 13/13/4 14/14/4 15/15/4 16/16/4
o 2-eastFace
v 0.03125 -0.09375 -1.1102230246251565e-16
v 0.28125 -0.09375 -1.1102230246251565e-16
v 0.28125 -0.34375 1.1102230246251565e-16
v 0.03125 -0.34375 1.1102230246251565e-16
vt 0.5 0.84375
vt 0.75 0.84375
vt 0.75 0.59375
vt 0.5 0.59375
vn 0 -8.881784197001252e-16 -1
usemtl m_e5856a7a-b351-8090-19b8-8ac72b847e58
f 17/17/5 18/18/5 19/19/5 20/20/5
o 2-bottomFace
v 0.03125 -0.34375 0
v 0.28125 -0.34375 0
v 0.28125 -0.34375 0.25
v 0.03125 -0.34375 0.25
vt 0 0.75
vt 0.25 0.75
vt 0.25 0.5
vt 0 0.5
vn 0 -1 0
usemtl m_e5856a7a-b351-8090-19b8-8ac72b847e58
f 21/21/6 22/22/6 23/23/6 24/24/6
o 2-bottomFace
v 0.0625 0.0625 -0.4375
v 0.3125 0.0625 -0.4375
v 0.3125 0.0625 -0.1875
v 0.0625 0.0625 -0.1875
vt 0.3125 0.9375
vt 0.5625 0.9375
vt 0.5625 0.6875
vt 0.3125 0.6875
vn 0 -1 0
usemtl m_e5856a7a-b351-8090-19b8-8ac72b847e58
f 25/25/7 26/26/7 27/27/7 28/28/7
o 2-westFace
v 0.3125 0.0625 -0.1875
v 0.3125 0.3125 -0.1875000000000001
v 0.0625 0.3125 -0.1875000000000001
v 0.0625 0.0625 -0.1875
vt 0.4375 0.34375
vt 0.4375 0.59375
vt 0.1875 0.59375
vt 0.1875 0.34375
vn 0 4.440892098500626e-16 1
usemtl m_e5856a7a-b351-8090-19b8-8ac72b847e58
f 29/29/8 30/30/8 31/31/8 32/32/8
o 2-southFace
v 0.3125 0.3125 -0.4375
v 0.3125 0.3125 -0.1875
v 0.3125 0.0625 -0.1875
v 0.3125 0.0625 -0.4375
vt 0 0.25
vt 0.25 0.25
vt 0.25 0
vt 0 0
vn 1 0 0
usemtl m_e5856a7a-b351-8090-19b8-8ac72b847e58
f 33/33/9 34/34/9 35/35/9 36/36/9
o 2-topFace
v 0.3125 0.3125 -0.1875
v 0.3125 0.3125 -0.4375
v 0.0625 0.3125 -0.4375
v 0.0625 0.3125 -0.1875
vt 0.34375 0.21875
vt 0.34375 0.46875
vt 0.09375 0.46875
vt 0.09375 0.21875
vn 0 1 0
usemtl m_e5856a7a-b351-8090-19b8-8ac72b847e58
f 37/37/10 38/38/10 39/39/10 40/40/10
o 2-northFace
v 0.06250000000000011 0.0625 -0.18750000000000006
v 0.06250000000000011 0.31249999999999994 -0.18750000000000008
v 0.06249999999999989 0.3124999999999999 -0.43750000000000006
v 0.06249999999999989 0.062499999999999944 -0.4375
vt 1 0.75
vt 1 1
vt 0.75 1
vt 0.75 0.75
vn -1 9.860761315262652e-32 8.881784197001254e-16
usemtl m_e5856a7a-b351-8090-19b8-8ac72b847e58
f 41/41/11 42/42/11 43/43/11 44/44/11
o 2-eastFace
v 0.0625 0.3125 -0.4375000000000001
v 0.3125 0.3125 -0.4375000000000001
v 0.3125 0.0625 -0.4374999999999999
v 0.0625 0.0625 -0.4374999999999999
vt 0.46875 1
vt 0.71875 1
vt 0.71875 0.75
vt 0.46875 0.75
vn 0 -8.881784197001252e-16 -1
usemtl m_e5856a7a-b351-8090-19b8-8ac72b847e58
f 45/45/12 46/46/12 47/47/12 48/48/12
o 2-bottomFace
v -0.40625 0.125 0.0625
v -0.15625 0.125 0.0625
v -0.15625 0.125 0.3125
v -0.40625 0.125 0.3125
vt 0.5625 0.59375
vt 0.8125 0.59375
vt 0.8125 0.34375
vt 0.5625 0.34375
vn 0 -1 0
usemtl m_e5856a7a-b351-8090-19b8-8ac72b847e58
f 49/49/13 50/50/13 51/51/13 52/52/13
o 2-westFace
v -0.15625 0.125 0.3125
v -0.15625 0.375 0.3124999999999999
v -0.40625 0.375 0.3124999999999999
v -0.40625 0.125 0.3125
vt 0.625 0.25
vt 0.625 0.5
vt 0.375 0.5
vt 0.375 0.25
vn 0 4.440892098500626e-16 1
usemtl m_e5856a7a-b351-8090-19b8-8ac72b847e58
f 53/53/14 54/54/14 55/55/14 56/56/14
o 2-southFace
v -0.15625 0.375 0.0625
v -0.15625 0.375 0.3125
v -0.15625 0.125 0.3125
v -0.15625 0.125 0.0625
vt 0.40625 0.53125
vt 0.65625 0.53125
vt 0.65625 0.28125
vt 0.40625 0.28125
vn 1 0 0
usemtl m_e5856a7a-b351-8090-19b8-8ac72b847e58
f 57/57/15 58/58/15 59/59/15 60/60/15
o 2-topFace
v -0.15625 0.375 0.3125
v -0.15625 0.375 0.0625
v -0.40625 0.375 0.0625
v -0.40625 0.375 0.3125
vt 1 0.75
vt 1 1
vt 0.75 1
vt 0.75 0.75
vn 0 1 0
usemtl m_e5856a7a-b351-8090-19b8-8ac72b847e58
f 61/61/16 62/62/16 63/63/16 64/64/16
o 2-northFace
v -0.4062499999999999 0.125 0.31249999999999994
v -0.4062499999999999 0.37499999999999994 0.3124999999999999
v -0.4062500000000001 0.3749999999999999 0.062499999999999944
v -0.4062500000000001 0.12499999999999994 0.0625
vt 0.875 0.5
vt 0.875 0.75
vt 0.625 0.75
vt 0.625 0.5
vn -1 9.860761315262652e-32 8.881784197001254e-16
usemtl m_e5856a7a-b351-8090-19b8-8ac72b847e58
f 65/65/17 66/66/17 67/67/17 68/68/17
o 2-eastFace
v -0.40625 0.375 0.06249999999999989
v -0.15625 0.375 0.06249999999999989
v -0.15625 0.125 0.06250000000000011
v -0.40625 0.125 0.06250000000000011
vt 0.1875 0.625
vt 0.4375 0.625
vt 0.4375 0.375
vt 0.1875 0.375
vn 0 -8.881784197001252e-16 -1
usemtl m_e5856a7a-b351-8090-19b8-8ac72b847e58
f 69/69/18 70/70/18 71/71/18 72/72/18