# Made in Blockbench 5.1.4
mtllib stoneHandAxe.mtl

o 2-westFace
v -0.06250000000000001 -0.1250002504360792 0.2500000185956649
v -0.06250000000000001 -0.20017670031214752 0.01157078090860822
v 0.06249999999999998 -0.20017670031214752 0.01157078090860822
v 0.062499999999999986 -0.1250002504360792 0.2500000185956649
vt 0.21875 0
vt 0.21875 0.25
vt 0.09375 0.25
vt 0.09375 0
vn -1.16796641102639e-16 -0.9537169507482268 0.3007057995042733
usemtl m_e5856a7a-b351-8090-19b8-8ac72b847e58
f 1/1/1 2/2/1 3/3/1 4/4/1
o 2-westFace
v -0.06250000000000003 -0.2001764518922193 0.011570675473054848
v -0.06250000000000006 -0.32517645189221933 -0.20493567547305483
v 0.06249999999999996 -0.32517645189221933 -0.20493567547305483
v 0.06249999999999998 -0.2001764518922193 0.011570675473054848
vt 0.90625 0.53125
vt 0.90625 0.78125
vt 0.78125 0.78125
vt 0.78125 0.53125
vn -1.0605752387249068e-16 -0.8660254037844386 0.5000000000000001
usemtl m_e5856a7a-b351-8090-19b8-8ac72b847e58
f 5/5/2 6/6/2 7/7/2 8/8/2
o 2-southFace
v -0.0625 0.20017624999999997 0.01157062499999996
v -0.0625 -0.20017625000000003 0.011570625000000043
v -0.0625 -0.12499999999999996 0.25
v -0.0625 0.12500000000000003 0.24999999999999997
vt 1 1
vt 0.59965 1
vt 0.674825 0.76156875
vt 0.924825 0.76156875
vn -1 1.2246467991473532e-16 -2.5407181807812022e-33
usemtl m_e5856a7a-b351-8090-19b8-8ac72b847e58
f 9/9/3 10/10/3 11/11/3 12/12/3
o 2-southFace
v -0.062499999999999944 0.32517624999999994 -0.20493562500000007
v -0.0625 -0.32517625000000006 -0.20493562499999993
v -0.0625 -0.20017625000000003 0.011570625000000057
v -0.0625 0.20017624999999997 0.011570624999999946
vt 0.8066 0.625
vt 0.15625 0.625
vt 0.28125 0.40849375
vt 0.6816 0.40849375
vn -1 1.2246467991473532e-16 -2.5407181807812022e-33
usemtl m_e5856a7a-b351-8090-19b8-8ac72b847e58
f 13/13/4 14/14/4 15/15/4 16/16/4
o 2-southFace
v 0 0.1249999999999999 -0.3125
v 0 -0.12500000000000008 -0.3125
v -0.0625 -0.32517625000000006 -0.20493562499999993
v -0.062499999999999944 0.32517624999999994 -0.2049356250000001
vt 0.762675 0.40625
vt 0.512675 0.40625
vt 0.3125 0.2986875
vt 0.96285 0.2986875
vn -0.8646378838631041 -5.66662881530562e-18 -0.5023955909328159
usemtl m_e5856a7a-b351-8090-19b8-8ac72b847e58
f 17/17/5 18/18/5 19/19/5 20/20/5
o 2-topFace
v -0.06250000000000003 -0.3251767605802112 -0.20493550850211362
v -1.2196176707640038e-17 -0.12499970909873642 -0.31249993482686855
v -1.2196176707640038e-17 -0.12499970909873642 -0.31249993482686855
v 0.06249999999999996 -0.3251767605802112 -0.20493550850211362
vt 0 1
vt 0.125 0.75
vt 0.125 0.75
vt 0.25 1
vn 0 0 0
usemtl m_e5856a7a-b351-8090-19b8-8ac72b847e58
f 21/21/6 22/22/6 23/23/6 24/24/6
o 2-topFace
v 1.901612830513014e-17 0.124999721461077 -0.3125002018922194
v -0.06249999999999996 0.3251762316766744 -0.20493608806746455
v 0.06250000000000004 0.3251762316766744 -0.20493608806746455
v 1.901612830513014e-17 0.124999721461077 -0.3125002018922194
vt 0.875 0.75
vt 1 1
vt 0.75 1
vt 0.875 0.75
vn -5.79671976008128e-17 -0.4733380893264231 0.8808808393834044
usemtl m_e5856a7a-b351-8090-19b8-8ac72b847e58
f 25/25/7 27/26/7 26/27/7 28/28/7
o 2-northFace
v 0.0625 -0.12499999999999997 0.25
v 0.0625 -0.20017625000000003 0.011570625000000043
v 0.0625 0.20017624999999997 0.01157062499999996
v 0.0625 0.12500000000000003 0.24999999999999997
vt 0.35325 0
vt 0.40035 0.23843124999999998
vt 0 0.23843124999999998
vt 0.058875 0
vn 1 -1.2246467991473532e-16 2.5407181807812022e-33
usemtl m_e5856a7a-b351-8090-19b8-8ac72b847e58
f 29/29/8 30/30/8 31/31/8 32/32/8
o 2-northFace
v 0.0625 -0.20017625000000003 0.011570625000000057
v 0.062499999999999944 -0.32517625000000006 -0.20493562499999993
v 0.0625 0.32517624999999994 -0.20493562500000007
v 0.0625 0.20017624999999997 0.011570624999999946
vt 0.8066 0.37724375
vt 0.9316 0.59375
vt 0.28125 0.59375
vt 0.40625 0.37724375
vn 1 -1.2246467991473532e-16 2.5407181807812022e-33
usemtl m_e5856a7a-b351-8090-19b8-8ac72b847e58
f 33/33/9 34/34/9 35/35/9 36/36/9
o 2-northFace
v 0.062499999999999944 -0.32517625000000006 -0.20493562499999993
v 0 -0.12500000000000008 -0.3125
v 0 0.1249999999999999 -0.3125
v 0.0625 0.32517624999999994 -0.2049356250000001
vt 0.9316 0.34434374999999995
vt 0.731425 0.46875
vt 0.481425 0.46875
vt 0.28125 0.34434374999999995
vn 0.8646378838631041 -2.174418321942039e-16 -0.5023955909328159
usemtl m_e5856a7a-b351-8090-19b8-8ac72b847e58
f 37/37/10 38/38/10 39/39/10 40/40/10
o 2-eastFace
v 0.06250000000000001 0.20017670031214752 0.011570780908608136
v -0.06249999999999998 0.20017670031214763 0.011570780908608136
v -0.062499999999999986 0.12500025043607937 0.2500000185956649
v 0.06250000000000001 0.12500025043607937 0.2500000185956649
vt 0.34375 0.75
vt 0.46875 0.75
vt 0.46875 0.5
vt 0.34375 0.5
vn 1.1679664110263902e-16 0.953716950748227 0.30070579950427284
usemtl m_e5856a7a-b351-8090-19b8-8ac72b847e58
f 41/41/11 42/42/11 43/43/11 44/44/11
o 2-eastFace
v 0.06250000000000004 0.3251764518922192 -0.2049356754730549
v -0.062499999999999965 0.3251764518922192 -0.2049356754730549
v -0.062499999999999986 0.2001764518922193 0.011570675473054792
v 0.06250000000000001 0.20017645189221925 0.011570675473054792
vt 0.09375 0.65625
vt 0.21875 0.65625
vt 0.21875 0.40625
vt 0.09375 0.40625
vn 1.0605752387249072e-16 0.8660254037844388 0.4999999999999998
usemtl m_e5856a7a-b351-8090-19b8-8ac72b847e58
f 45/45/12 46/46/12 47/47/12 48/48/12
o 2-bottomFace
v 0.06250000000000001 0.12500000000000003 0.25
v -0.062499999999999986 0.12500000000000003 0.25
v -0.06250000000000001 -0.12499999999999994 0.25
v 0.062499999999999986 -0.12499999999999997 0.25
vt 0.875 0.25
vt 1 0.25
vt 1 0
vt 0.875 0
vn 2.719262146893782e-32 2.220446049250313e-16 1
usemtl m_e5856a7a-b351-8090-19b8-8ac72b847e58
f 49/49/13 50/50/13 51/51/13 52/52/13