# Made in Blockbench 5.1.4
mtllib stoneKnifeBlade.mtl

o 2-westFace
v -0.03125000000000001 -0.062499999999999944 0.25
v -0.03125000000000001 -0.0625 -0.25
v 0.031249999999999993 -0.062499999999999944 0.25
v 0.031249999999999993 -0.06250000000000011 -0.25
vt 0.578125 0
vt 0.578125 1
vt 0.453125 1
vt 0.453125 0
vn -1.2246467991473532e-16 -1 2.220446049250313e-16
usemtl m_e5856a7a-b351-8090-19b8-8ac72b847e58
f 1/1/1 2/2/1 4/3/1 3/4/1
o 2-eastFace
v 0.03125000000000001 0.062499999999999944 0
v -0.031249999999999993 0.0625 0
v -0.031249999999999993 0.0625 0.25
v 0.03125000000000001 0.0625 0.25
vt 0.34375 0.75
vt 0.46875 0.75
vt 0.46875 0.5
vt 0.34375 0.5
vn 1.2246467991473532e-16 1 -2.220446049250313e-16
usemtl m_e5856a7a-b351-8090-19b8-8ac72b847e58
f 5/5/2 6/6/2 7/7/2 8/8/2
o 2-bottomFace
v 0.03125000000000001 0.06250000000000004 0.25
v -0.031249999999999993 0.06250000000000004 0.25
v -0.03125000000000001 -0.06249999999999996 0.25
v 0.031249999999999993 -0.06249999999999997 0.25
vt 0 1
vt 0.125 1
vt 0.125 0.75
vt 0 0.75
vn 2.719262146893782e-32 2.220446049250313e-16 1
usemtl m_e5856a7a-b351-8090-19b8-8ac72b847e58
f 9/9/3 10/10/3 11/11/3 12/12/3
o 2-northFace
v 0.03125 -0.06249999999999997 0.25
v 0.03125 -0.06250000000000003 1.3877787807814457e-17
v 0.03125 0.06249999999999998 -1.3877787807814457e-17
v 0.03125 0.06250000000000003 0.25
vt 0.46875 0
vt 0.46875 0.5
vt 0.21875 0.5
vt 0.21875 0
vn 1 -1.2246467991473532e-16 2.5407181807812022e-33
usemtl m_e5856a7a-b351-8090-19b8-8ac72b847e58
f 13/13/4 14/14/4 15/15/4 16/16/4
o 2-southFace
v -0.03125 -0.06250000000000001 -5.551115123125783e-17
v -0.03125 -0.062499999999999965 0.24999999999999994
v -0.03125 0.06250000000000004 0.24999999999999994
v -0.03125 0.062499999999999986 -5.551115123125783e-17
vt 0.25 0
vt 0.2481753125 0.5
vt 0 0.5
vt 0 0
vn -1 1.224646799147353e-16 -1.2246467991473532e-16
usemtl m_e5856a7a-b351-8090-19b8-8ac72b847e58
f 17/17/5 18/18/5 19/19/5 20/20/5
o 2-eastFace
v 0.03125000000000001 -5.551115123125783e-17 -0.25
v -0.031249999999999993 0 -0.25
v -0.031249999999999993 0 0
v 0.03125000000000001 0 0
vt 0.53125 0.6875
vt 0.40625 0.6875
vt 0.40625 0.1875
vt 0.53125 0.1875
vn 1.2246467991473532e-16 1 -2.220446049250313e-16
usemtl m_e5856a7a-b351-8090-19b8-8ac72b847e58
f 21/21/6 22/22/6 23/23/6 24/24/6
o 2-topFace
v -0.031249999999999934 -7.28583859910259e-17 -0.25
v 0.03125000000000007 -7.979727989493313e-17 -0.25
v 0.031250000000000056 -0.06250000000000008 -0.25
v -0.03124999999999994 -0.06250000000000007 -0.25
vt 0.59375 0.3125
vt 0.71875 0.3125
vt 0.71875 0.1875
vt 0.59375 0.1875
vn 1.224646799147353e-16 -2.220446049250313e-16 -1
usemtl m_e5856a7a-b351-8090-19b8-8ac72b847e58
f 25/25/7 26/26/7 27/27/7 28/28/7
o 2-southFace
v -0.03125 -0.06250000000000007 -0.25000000000000006
v -0.03125 -0.06250000000000001 -5.551115123125783e-17
v -0.03125 -2.0816681711721685e-17 -5.551115123125783e-17
v -0.03125 -7.632783294297951e-17 -0.25000000000000006
vt 0.71875 0.265625
vt 0.71875 0.765625
vt 0.59375 0.765625
vt 0.59375 0.265625
vn -1 1.224646799147353e-16 -1.2246467991473532e-16
usemtl m_e5856a7a-b351-8090-19b8-8ac72b847e58
f 29/29/8 30/30/8 31/31/8 32/32/8
o 2-northFace
v 0.03125 -0.06250000000000003 0
v 0.03125 -0.06250000000000008 -0.25
v 0.03125 -7.979727989493313e-17 -0.25
v 0.03125 -2.42861286636753e-17 0
vt 0.125 0.5
vt 0.125 1
vt 0 1
vt 0 0.5
vn 1 -1.2246467991473532e-16 2.5407181807812022e-33
usemtl m_e5856a7a-b351-8090-19b8-8ac72b847e58
f 33/33/9 34/34/9 35/35/9 36/36/9
o 2-topFace
v -0.031249999999999927 0.062499999999999986 0
v 0.031250000000000076 0.06249999999999997 0
v 0.03125000000000006 -2.7755575615628914e-17 0
v -0.031249999999999934 -1.3877787807814457e-17 0
vt 0.875 0.25
vt 1 0.25
vt 1 0.125
vt 0.875 0.125
vn 1.224646799147353e-16 -2.220446049250313e-16 -1
usemtl m_e5856a7a-b351-8090-19b8-8ac72b847e58
f 37/37/10 38/38/10 39/39/10 40/40/10
o 2-northFace
v 0.015625 -0.04687499999999993 0.4375
v 0.015625 -0.04687499999999997 0.25
v 0.015625 -0.015624999999999967 0.25
v 0.015625 -0.015624999999999925 0.4375
vt 0.09375 0.78125
vt 0.09375 0.96875
vt 0.03125 0.96875
vt 0.03125 0.78125
vn 1 -1.2246467991473532e-16 2.5407181807812022e-33
usemtl m_e5856a7a-b351-8090-19b8-8ac72b847e58
f 41/41/11 42/42/11 43/43/11 44/44/11
o 2-eastFace
v 0.015624999999999993 -0.015624999999999889 0.25
v -0.015625000000000007 -0.015624999999999889 0.25
v -0.015625000000000007 -0.015624999999999889 0.4375
v 0.015624999999999993 -0.015624999999999889 0.4375
vt 0.46875 0.6875
vt 0.40625 0.6875
vt 0.40625 0.5
vt 0.46875 0.5
vn 1.2246467991473532e-16 1 -2.220446049250313e-16
usemtl m_e5856a7a-b351-8090-19b8-8ac72b847e58
f 45/45/12 46/46/12 47/47/12 48/48/12
o 2-westFace
v -0.015625000000000007 -0.046874999999999944 0.4375
v -0.015625000000000007 -0.046874999999999944 0.25
v 0.015624999999999995 -0.046874999999999944 0.4375
v 0.015624999999999995 -0.046874999999999944 0.25
vt 0.4375 0.375
vt 0.4375 0.5625
vt 0.375 0.5625
vt 0.375 0.375
vn -1.2246467991473532e-16 -1 2.220446049250313e-16
usemtl m_e5856a7a-b351-8090-19b8-8ac72b847e58
f 49/49/13 50/50/13 52/51/13 51/52/13
o 2-bottomFace
v 0.015625000000000003 -0.015624999999999927 0.4375
v -0.015624999999999998 -0.01562499999999992 0.4375
v -0.015625000000000003 -0.046874999999999924 0.4375
v 0.015624999999999998 -0.046874999999999924 0.4375
vt 0.28125 0.46875
vt 0.34375 0.46875
vt 0.34375 0.40625
vt 0.28125 0.40625
vn 2.719262146893782e-32 2.220446049250313e-16 1
usemtl m_e5856a7a-b351-8090-19b8-8ac72b847e58
f 53/53/14 54/54/14 55/55/14 56/56/14
o 2-southFace
v -0.015625 -0.046874999999999965 0.24999999999999994
v -0.015625 -0.046874999999999924 0.43749999999999994
v -0.015625 -0.01562499999999992 0.43749999999999994
v -0.015625 -0.015624999999999962 0.24999999999999994
vt 0.65625 0.578125
vt 0.65625 0.765625
vt 0.59375 0.765625
vt 0.59375 0.578125
vn -1 1.224646799147353e-16 -1.2246467991473532e-16
usemtl m_e5856a7a-b351-8090-19b8-8ac72b847e58
f 57/57/15 58/58/15 59/59/15 60/60/15