# Made in Blockbench 5.0.2
mtllib brick.mtl

o topFace
v 0.2187500000000001 0.0625 0.125
v 0.2187500000000001 0.0625 -0.125
v -0.2187500000000001 0.0625 -0.125
v -0.2187500000000001 0.0625 0.125
vt 1 0
vt 1 1
vt 0 1
vt 0 0
vn 0 1 0
usemtl none
f 1/1/1 2/2/1 3/3/1 4/4/1
o bottomFace
v 0.21875 -0.06249999999999998 -0.125
v 0.21875 -0.06250000000000001 0.125
v -0.21875 -0.06250000000000001 0.125
v -0.21875 -0.06249999999999998 -0.125
vt 1 0
vt 1 1
vt 0 1
vt 0 0
vn 0 -1 -1.5308084989341916e-16
usemtl none
f 5/5/2 6/6/2 7/7/2 8/8/2
o southFace
v 0.21875000000000006 0.0625 -0.12499999999999999
v 0.21875000000000006 0.0625 0.12500000000000003
v 0.21874999999999994 -0.0625 0.12499999999999999
v 0.21874999999999994 -0.0625 -0.12500000000000003
vt 1 0
vt 1 1
vt 0 1
vt 0 0
vn 1 -8.881784197001252e-16 0
usemtl none
f 9/9/3 10/10/3 11/11/3 12/12/3
o northFace
v -0.2187499999999996 0.0625 0.1250000000000004
v -0.21874999999999956 0.0625000000000005 -0.1249999999999997
v -0.2187500000000004 -0.062499999999999986 -0.1250000000000004
v -0.21875000000000044 -0.0625000000000005 0.1249999999999997
vt 1 0
vt 1 1
vt 0 1
vt 0 0
vn -1 6.6613381477509156e-15 -2.2204460492501792e-16
usemtl none
f 13/13/4 14/14/4 15/15/4 16/16/4
o eastFace
v 0.21875 0.0625 -0.12499999999999997
v 0.21875 -0.0625 -0.12500000000000003
v -0.21875 -0.0625 -0.12500000000000003
v -0.21875 0.0625 -0.12499999999999997
vt 1 0
vt 1 1
vt 0 1
vt 0 0
vn 0 4.440892098500626e-16 -1
usemtl none
f 17/17/5 18/18/5 19/19/5 20/20/5
o westFace
v -0.21875 0.0625 0.1250000000000003
v -0.21875 -0.0625 0.12499999999999978
v 0.21875 -0.0625 0.1249999999999997
v 0.21875 0.0625 0.12500000000000022
vt 1 0
vt 1 1
vt 0 1
vt 0 0
vn 1.9032394707859825e-16 -4.218847493575595e-15 1
usemtl none
f 21/21/6 22/22/6 23/23/6 24/24/6