# Made in Blockbench 5.1.5
mtllib campFireBase.mtl

o topFace
v 0.625 0.0625 0.625
v 0.625 0.0625 0.375
v 0.375 0.0625 0.375
v 0.375 0.0625 0.625
vt 0.5 0.46875
vt 0.5 0.71875
vt 0.25 0.71875
vt 0.25 0.46875
vn 0 1 0
usemtl m_98d9f6a2-5294-e122-7bb2-78d0bdcde745
f 1/1/1 2/2/1 3/3/1 4/4/1
o bottomFace
v 0.375 -1.5308084989341915e-17 0.625
v 0.375 -1.5308084989341915e-17 0.375
v 0.625 1.5308084989341915e-17 0.375
v 0.625 1.5308084989341915e-17 0.625
vt 0.75 0.3125
vt 0.75 0.5625
vt 0.5 0.5625
vt 0.5 0.3125
vn 1.2246467991473532e-16 -1 0
usemtl m_98d9f6a2-5294-e122-7bb2-78d0bdcde745
f 5/5/2 6/6/2 7/7/2 8/8/2
o northFace
v 0.375 0.0625 0.625
v 0.375 0.0625 0.375
v 0.375 0 0.375
v 0.375 0 0.625
vt 0.46875 0.5625
vt 0.21875 0.5625
vt 0.21875 0.5
vt 0.46875 0.5
vn -1 0 0
usemtl m_98d9f6a2-5294-e122-7bb2-78d0bdcde745
f 9/9/3 10/10/3 11/11/3 12/12/3
o southFace
v 0.6249999999999999 0.06250000000000029 0.37500000000000006
v 0.625 0.06249999999999971 0.6250000000000001
v 0.6250000000000001 -2.914335439641036e-16 0.6249999999999999
v 0.625 2.914335439641036e-16 0.3749999999999999
vt 0.46875 0.5
vt 0.21875 0.5
vt 0.21875 0.4375
vt 0.46875 0.4375
vn 1 1.776356839400252e-15 -4.440892098500584e-16
usemtl m_98d9f6a2-5294-e122-7bb2-78d0bdcde745
f 13/13/4 14/14/4 15/15/4 16/16/4
o eastFace
v 0.375 0.0625 0.3750000000000003
v 0.625 0.06249999999999999 0.3750000000000003
v 0.625 -6.938893903907228e-18 0.3749999999999997
v 0.375 6.938893903907228e-18 0.3749999999999997
vt 0.4375 0.28125
vt 0.4375 0.53125
vt 0.375 0.53125
vt 0.375 0.28125
vn 2.4651903288156623e-31 8.881784197001254e-15 -1
usemtl m_98d9f6a2-5294-e122-7bb2-78d0bdcde745
f 17/17/5 18/18/5 19/19/5 20/20/5
o westFace
v 0.6250000004656613 0.06249999813735484 0.6250000000000006
v 0.3750000004656613 0.06250000186264515 0.6250000000000006
v 0.3749999995343387 1.862645163108745e-9 0.6249999999999994
v 0.6249999995343387 -1.862645149230957e-9 0.6249999999999994
vt 0.6875 0.25
vt 0.4375 0.25
vt 0.4375 0.1875
vt 0.6875 0.1875
vn -2.64697797003045e-22 -1.7763568394002505e-14 1
usemtl m_98d9f6a2-5294-e122-7bb2-78d0bdcde745
f 21/21/6 22/22/6 23/23/6 24/24/6