# Made in Blockbench 5.1.4
mtllib cropGrowth6.mtl

o northFace
v 0.7500000000000001 1.1102230246251565e-16 1
v 0.7500000000000001 0.75 0.9999999999999999
v 0.7499999999999999 0.7499999999999999 -1.1102230246251565e-16
v 0.7499999999999999 -5.551115123125783e-17 1.1102230246251565e-16
vt 1 0
vt 1 0.75
vt 0 0.75
vt 0 0
vn -1 3.2869204384208834e-32 2.2204460492503136e-16
usemtl m_57ad0444-1245-120a-4124-8618ed6ee749
f 1/1/1 2/2/1 3/3/1 4/4/1
o southFace
v 0.75 0.75 0
v 0.75 0.75 1
v 0.75 0 1
v 0.75 0 0
vt 0 0.75
vt 1 0.75
vt 1 0
vt 0 0
vn 1 0 0
usemtl m_57ad0444-1245-120a-4124-8618ed6ee749
f 5/5/2 6/6/2 7/7/2 8/8/2
o eastFace
v 0 0.75 0.7499999999999999
v 1 0.75 0.7499999999999999
v 1 0 0.7500000000000001
v 0 0 0.7500000000000001
vt 0 0.75
vt 1 0.75
vt 1 0
vt 0 0
vn 0 -2.9605947323337506e-16 -1
usemtl m_57ad0444-1245-120a-4124-8618ed6ee749
f 9/9/3 10/10/3 11/11/3 12/12/3
o westFace
v 1 0 0.75
v 1 0.75 0.7499999999999999
v 0 0.75 0.7499999999999999
v 0 0 0.75
vt 1 0
vt 1 0.75
vt 0 0.75
vt 0 0
vn 0 1.4802973661668753e-16 1
usemtl m_57ad0444-1245-120a-4124-8618ed6ee749
f 13/13/4 14/14/4 15/15/4 16/16/4
o westFace
v 1 0 0.25
v 1 0.75 0.2499999999999999
v 0 0.75 0.2499999999999999
v 0 0 0.25
vt 1 0
vt 1 0.75
vt 0 0.75
vt 0 0
vn 0 1.4802973661668753e-16 1
usemtl m_57ad0444-1245-120a-4124-8618ed6ee749
f 17/17/5 18/18/5 19/19/5 20/20/5
o eastFace
v 0 0.75 0.2499999999999999
v 1 0.75 0.2499999999999999
v 1 0 0.2500000000000001
v 0 0 0.2500000000000001
vt 0 0.75
vt 1 0.75
vt 1 0
vt 0 0
vn 0 -2.9605947323337506e-16 -1
usemtl m_57ad0444-1245-120a-4124-8618ed6ee749
f 21/21/6 22/22/6 23/23/6 24/24/6
o northFace
v 0.2500000000000001 1.1102230246251565e-16 1
v 0.2500000000000001 0.75 0.9999999999999999
v 0.2499999999999999 0.7499999999999999 -1.1102230246251565e-16
v 0.2499999999999999 -5.551115123125783e-17 1.1102230246251565e-16
vt 1 0
vt 1 0.75
vt 0 0.75
vt 0 0
vn -1 3.2869204384208834e-32 2.2204460492503136e-16
usemtl m_57ad0444-1245-120a-4124-8618ed6ee749
f 25/25/7 26/26/7 27/27/7 28/28/7
o southFace
v 0.25 0.75 0
v 0.25 0.75 1
v 0.25 0 1
v 0.25 0 0
vt 0 0.75
vt 1 0.75
vt 1 0
vt 0 0
vn 1 0 0
usemtl m_57ad0444-1245-120a-4124-8618ed6ee749
f 29/29/8 30/30/8 31/31/8 32/32/8