# Made in Blockbench 4.12.6
mtllib fireWood.mtl

o topFace
v 0.25 0.0625 0.0625
v 0.25 0.0625 -0.0625
v -0.25 0.0625 0.0625
v -0.25 0.0625 -0.0625
vt 1 0
vt 1 1
vt 0 1
vt 0 0
vn 0 1 0
usemtl none
f 1/1/1 2/2/1 4/3/1 3/4/1
o bottomFace
v -0.25 -0.06250000000000003 0.0625
v -0.25 -0.06250000000000003 -0.0625
v 0.25 -0.06249999999999997 0.0625
v 0.25 -0.06249999999999997 -0.0625
vt 1 0
vt 1 1
vt 0 1
vt 0 0
vn 1.2246467991473532e-16 -1 0
usemtl none
f 5/5/2 6/6/2 8/7/2 7/8/2
o northFace
v -0.25 0.0625 0.0625
v -0.25 0.0625 -0.0625
v -0.25 -0.0625 0.0625
v -0.25 -0.0625 -0.0625
vt 1 0
vt 1 1
vt 0 1
vt 0 0
vn -1 2.220446049250313e-16 0
usemtl none
f 9/9/3 10/10/3 12/11/3 11/12/3
o southFace
v 0.24999999999999992 0.06250000000000015 -0.062499999999999854
v 0.24999999999999992 0.062499999999999854 0.06250000000000015
v 0.25000000000000006 -0.062499999999999854 -0.06250000000000015
v 0.2500000000000001 -0.06250000000000015 0.062499999999999854
vt 1 0
vt 1 1
vt 0 1
vt 0 0
vn 1 1.332267629550188e-15 -1.2246467991473557e-16
usemtl none
f 13/13/4 14/14/4 16/15/4 15/16/4
o eastFace
v -0.25 0.06250000000000001 -0.0624999999999995
v 0.25 0.062499999999999986 -0.0624999999999995
v -0.25 -0.062499999999999986 -0.0625000000000005
v 0.25 -0.06250000000000001 -0.0625000000000005
vt 1 0
vt 1 1
vt 0 1
vt 0 0
vn 4.468157470978387e-31 8.049116928532385e-15 -1
usemtl none
f 17/17/5 18/18/5 20/19/5 19/20/5
o westFace
v 0.2500000009313225 0.062499996274709674 0.06250000000000105
v -0.24999999906867737 0.0625000037252903 0.06250000000000105
v 0.24999999906867737 -0.0625000037252903 0.062499999999998945
v -0.2500000009313225 -0.062499996274709674 0.062499999999998945
vt 1 0
vt 1 1
vt 0 1
vt 0 0
vn -2.514629071528928e-22 -1.687538997430238e-14 1
usemtl none
f 21/21/6 22/22/6 24/23/6 23/24/6