# Made in Blockbench 4.12.6
mtllib itemClay.mtl

o topFace
v 0.78125 0.0625 0.78125
v 0.78125 0.0625 0.21875
v 0.21875 0.0625 0.78125
v 0.21875 0.0625 0.21875
vt 1 0
vt 1 1
vt 0 1
vt 0 0
vn 0 1 0
usemtl none
f 1/1/1 2/2/1 4/3/1 3/4/1
o northFace
v 0.21875 0.0625 0.78125
v 0.21875 0.0625 0.21875
v 0.21875 0 0.78125
v 0.21875 0 0.21875
vt 1 0
vt 1 1
vt 0 1
vt 0 0
vn -1 2.220446049250313e-16 0
usemtl none
f 5/5/2 6/6/2 8/7/2 7/8/2
o southFace
v 0.7812499999999998 0.06250000000000079 0.2187500000000001
v 0.7812499999999999 0.06249999999999922 0.7812500000000001
v 0.7812500000000001 7.771561172376096e-16 0.2187499999999999
v 0.7812500000000002 -7.91033905045424e-16 0.7812499999999999
vt 1 0
vt 1 1
vt 0 1
vt 0 0
vn 1 4.440892098500625e-15 -1.2246467991473618e-16
usemtl none
f 9/9/3 10/10/3 12/11/3 11/12/3
o eastFace
v 0.21875 0.06250000000000001 0.21875000000000017
v 0.78125 0.062499999999999986 0.21875000000000017
v 0.21875 1.3877787807814457e-17 0.21874999999999983
v 0.78125 -1.3877787807814457e-17 0.21874999999999983
vt 1 0
vt 1 1
vt 0 1
vt 0 0
vn 2.711709361697228e-31 4.884981308350689e-15 -1
usemtl none
f 13/13/4 14/14/4 16/15/4 15/16/4
o westFace
v 0.78125 0.06249999999999995 0.7812500000000001
v 0.21875 0.06250000000000006 0.7812500000000001
v 0.78125 -4.85722573273506e-17 0.7812499999999999
v 0.21875 4.85722573273506e-17 0.7812499999999999
vt 1 0
vt 1 1
vt 0 1
vt 0 0
vn -4.622231866529366e-31 -2.7755575615628914e-15 1
usemtl none
f 17/17/5 18/18/5 20/19/5 19/20/5
o topFace
v 0.78125 0.0625 0.78125
v 0.78125 0.0625 0.21875
v 0.21875 0.0625 0.78125
v 0.21875 0.0625 0.21875
vt 1 0
vt 1 1
vt 0 1
vt 0 0
vn 0 1 0
usemtl none
f 21/21/6 22/22/6 24/23/6 23/24/6