# Made in Blockbench 5.1.4
mtllib itemStick.mtl

o topFace
v 0.5 0.0625 0.0625
v 0.5 0.0625 -0.0625
v -0.5 0.0625 -0.0625
v -0.5 0.0625 0.0625
vt 1 0.4375
vt 1 0.5625
vt 0 0.5625
vt 0 0.4375
vn 0 1 0
usemtl m_2711824f-f794-ad0a-7c9f-04a60645921a
f 1/1/1 2/2/1 3/3/1 4/4/1
o bottomFace
v 0.5 7.654042494670958e-18 -0.0625
v 0.5 -7.654042494670958e-18 0.0625
v -0.5 -7.654042494670958e-18 0.0625
v -0.5 7.654042494670958e-18 -0.0625
vt 1 0.4375
vt 1 0.5625
vt 0 0.5625
vt 0 0.4375
vn 0 -1 -1.2246467991473532e-16
usemtl m_2711824f-f794-ad0a-7c9f-04a60645921a
f 5/5/2 6/6/2 7/7/2 8/8/2
o westFace
v 0.5 0 0.0625
v 0.5 0.0625 0.06249999999999999
v -0.5 0.0625 0.06249999999999999
v -0.5 0 0.0625
vt 1 0.5
vt 1 0.5625
vt 0 0.5625
vt 0 0.5
vn 0 1.1102230246251565e-16 1
usemtl m_2711824f-f794-ad0a-7c9f-04a60645921a
f 9/9/3 10/10/3 11/11/3 12/12/3
o eastFace
v 0.5 0.0625 -0.06249999999999999
v 0.5 0 -0.0625
v -0.5 0 -0.0625
v -0.5 0.0625 -0.06249999999999999
vt 1 0.5
vt 1 0.5625
vt 0 0.5625
vt 0 0.5
vn 0 1.1102230246251565e-16 -1
usemtl m_2711824f-f794-ad0a-7c9f-04a60645921a
f 13/13/4 14/14/4 15/15/4 16/16/4
o northFace
v -0.49999999999999994 1.249000902703301e-16 0.06250000000000006
v -0.49999999999999994 0.06250000000000012 0.06249999999999994
v -0.5 0.062499999999999875 -0.06250000000000006
v -0.5 -1.249000902703301e-16 -0.06249999999999994
vt 0.125 0.5
vt 0.125 0.5625
vt 0 0.5625
vt 0 0.5
vn -1 8.38164711797325e-31 4.440892098500626e-16
usemtl m_2711824f-f794-ad0a-7c9f-04a60645921a
f 17/17/5 18/18/5 19/19/5 20/20/5
o southFace
v 0.5 -1.942890293094024e-16 -0.06249999999999989
v 0.5 0.06249999999999979 -0.0625000000000001
v 0.49999999999999994 0.0625000000000002 0.06249999999999989
v 0.49999999999999994 2.0816681711721685e-16 0.0625000000000001
vt 0.125 0.5
vt 0.125 0.5625
vt 0 0.5625
vt 0 0.5
vn 1 1.4791141972893977e-30 4.440892098500627e-16
usemtl m_2711824f-f794-ad0a-7c9f-04a60645921a
f 21/21/6 22/22/6 23/23/6 24/24/6