# Made in Blockbench 4.12.6
mtllib itemStick.mtl

o topFace
v 0.5 0.0625 0.0625
v 0.5 0.0625 -0.0625
v -0.5 0.0625 0.0625
v -0.5 0.0625 -0.0625
vt 1 0
vt 1 1
vt 0 1
vt 0 0
vn 0 1 0
usemtl none
f 1/1/1 2/2/1 4/3/1 3/4/1
o bottomFace
v 0.5 7.654042494670958e-18 -0.0625
v 0.5 -7.654042494670958e-18 0.0625
v -0.5 7.654042494670958e-18 -0.0625
v -0.5 -7.654042494670958e-18 0.0625
vt 1 0
vt 1 1
vt 0 1
vt 0 0
vn 0 -1 -1.2246467991473532e-16
usemtl none
f 5/5/2 6/6/2 8/7/2 7/8/2
o westFace
v 0.5 0 0.0625
v 0.5 0.0625 0.06249999999999999
v -0.5 0 0.0625
v -0.5 0.0625 0.06249999999999999
vt 1 0
vt 1 1
vt 0 1
vt 0 0
vn 0 2.220446049250313e-16 1
usemtl none
f 9/9/3 10/10/3 12/11/3 11/12/3
o eastFace
v 0.5 0.0625 -0.06249999999999999
v 0.5 0 -0.0625
v -0.5 0.0625 -0.06249999999999999
v -0.5 0 -0.0625
vt 1 0
vt 1 1
vt 0 1
vt 0 0
vn 0 2.220446049250313e-16 -1
usemtl none
f 13/13/4 14/14/4 16/15/4 15/16/4
o northFace
v -0.49999999999999994 1.249000902703301e-16 0.06250000000000006
v -0.49999999999999994 0.06250000000000012 0.06249999999999994
v -0.5 -1.249000902703301e-16 -0.06249999999999994
v -0.5 0.062499999999999875 -0.06250000000000006
vt 1 0
vt 1 1
vt 0 1
vt 0 0
vn -1 5.551115123125894e-17 5.551115123125782e-16
usemtl none
f 17/17/5 18/18/5 20/19/5 19/20/5
o southFace
v 0.5 -1.942890293094024e-16 -0.06249999999999989
v 0.5 0.06249999999999979 -0.0625000000000001
v 0.49999999999999994 2.0816681711721685e-16 0.0625000000000001
v 0.49999999999999994 0.0625000000000002 0.06249999999999989
vt 1 0
vt 1 1
vt 0 1
vt 0 0
vn 1 1.848892746611747e-30 5.551115123125784e-16
usemtl none
f 21/21/6 22/22/6 24/23/6 23/24/6