# Made in Blockbench 5.1.4
mtllib itemClay.mtl

o northFace
v 0.21875 0.0625 0.78125
v 0.21875 0.0625 0.21875
v 0.21875 0 0.21875
v 0.21875 0 0.78125
vt 0.0625 0
vt 0.0625 0.5625
vt 0 0.5625
vt 0 0
vn -1 0 0
usemtl m_092b089b-fa89-9ec8-a788-623feeff9ab3
f 1/1/1 2/2/1 3/3/1 4/4/1
o southFace
v 0.7812499999999998 0.06250000000000079 0.2187500000000001
v 0.7812499999999999 0.06249999999999922 0.7812500000000001
v 0.7812500000000002 -7.91033905045424e-16 0.7812499999999999
v 0.7812500000000001 7.771561172376096e-16 0.2187499999999999
vt 0.4375 0.40625
vt 0.4375 0.96875
vt 0.375 0.96875
vt 0.375 0.40625
vn 1 5.329070518200751e-15 -1.9737298215556853e-16
usemtl m_092b089b-fa89-9ec8-a788-623feeff9ab3
f 5/5/2 6/6/2 7/7/2 8/8/2
o eastFace
v 0.21875 0.06250000000000001 0.21875000000000017
v 0.78125 0.062499999999999986 0.21875000000000017
v 0.78125 -1.3877787807814457e-17 0.21874999999999983
v 0.21875 1.3877787807814457e-17 0.21874999999999983
vt 0.375 0
vt 0.375 0.5625
vt 0.3125 0.5625
vt 0.3125 0
vn 2.629536350736706e-31 5.329070518200751e-15 -1
usemtl m_092b089b-fa89-9ec8-a788-623feeff9ab3
f 9/9/3 10/10/3 11/11/3 12/12/3
o westFace
v 0.78125 0.06249999999999995 0.7812500000000001
v 0.21875 0.06250000000000006 0.7812500000000001
v 0.21875 4.85722573273506e-17 0.7812499999999999
v 0.78125 -4.85722573273506e-17 0.7812499999999999
vt 0.53125 0
vt 0.53125 0.5625
vt 0.46875 0.5625
vt 0.46875 0
vn -6.573840876841765e-31 -3.552713678800501e-15 1
usemtl m_092b089b-fa89-9ec8-a788-623feeff9ab3
f 13/13/4 14/14/4 15/15/4 16/16/4
o topFace
v 0.78125 0.0625 0.78125
v 0.78125 0.0625 0.21875
v 0.21875 0.0625 0.21875
v 0.21875 0.0625 0.78125
vt 1 0
vt 1 0.5625
vt 0.4375 0.5625
vt 0.4375 0
vn 0 1 0
usemtl m_092b089b-fa89-9ec8-a788-623feeff9ab3
f 17/17/5 18/18/5 19/19/5 20/20/5