# Made in Blockbench 4.12.6
mtllib itemStone.mtl

o topface
v 0.1875 0.0625 0.125
v 0.1875 0.0625 -0.125
v -0.1875 0.0625 -0.125
v -0.1875 0.0625 0.125
vt 1 0
vt 1 1
vt 0 1
vt 0 0
vn 0 1 0
usemtl none
f 1/1/1 2/2/1 3/3/1 4/4/1
o bottomFace
v -0.1875 -2.296212748401287e-17 0.125
v -0.1875 -2.296212748401287e-17 -0.125
v 0.1875 2.296212748401287e-17 -0.125
v 0.1875 2.296212748401287e-17 0.125
vt 1 0
vt 1 1
vt 0 1
vt 0 0
vn 1.2246467991473532e-16 -1 0
usemtl none
f 5/5/2 6/6/2 7/7/2 8/8/2
o southFace
v 0.1875 0 0.125
v 0.1875 0 -0.125
v 0.1875 0.0625 -0.125
v 0.1875 0.0625 0.125
vt 1 0
vt 1 1
vt 0 1
vt 0 0
vn 1 0 0
usemtl none
f 9/9/3 10/10/3 11/11/3 12/12/3
o northFace
v -0.18749999999999994 -2.914335439641036e-16 -0.12499999999999994
v -0.18749999999999994 2.914335439641036e-16 0.1250000000000001
v -0.18750000000000006 0.06250000000000029 0.12499999999999989
v -0.18750000000000006 0.06249999999999971 -0.1250000000000001
vt 1 0
vt 1 1
vt 0 1
vt 0 0
vn -1 -1.7763568394002505e-15 4.141519752410311e-30
usemtl none
f 13/13/4 14/14/4 15/15/4 16/16/4
o westFace
v -0.18749999953433866 -2.7939677238464355e-9 0.12499999999999989
v 0.1875000004656613 2.7939677411936703e-9 0.12499999999999989
v 0.1874999995343387 0.06250000279396772 0.1250000000000001
v -0.18750000046566123 0.06249999720603226 0.1250000000000001
vt 1 0
vt 1 1
vt 0 1
vt 0 0
vn 5.29395593677398e-23 -3.552713678800501e-15 1
usemtl none
f 17/17/5 18/18/5 19/19/5 20/20/5
o eastFace
v 0.1875000004656613 2.7939677203769886e-9 -0.12500000000000022
v -0.18749999953433866 -2.7939677099686477e-9 -0.12500000000000033
v -0.18750000046566123 0.062499997206032276 -0.12499999999999978
v 0.1874999995343387 0.06250000279396771 -0.12499999999999967
vt 1 0
vt 1 1
vt 0 1
vt 0 0
vn 2.9605934088447745e-16 8.881784201412883e-15 -1
usemtl none
f 21/21/6 22/22/6 23/23/6 24/24/6