# Made in Blockbench 5.0.1
mtllib largeFireWood.mtl

o topFace
v 0.5000000000000001 0.125 0.125
v 0.5000000000000001 0.125 -0.125
v -0.5000000000000001 0.125 -0.125
v -0.5000000000000001 0.125 0.125
vt 1 0
vt 1 1
vt 0 1
vt 0 0
vn 0 1 0
usemtl none
f 1/1/1 2/2/1 3/3/1 4/4/1
o bottomFace
v -0.5000000000000001 -0.12500000000000003 0.125
v -0.5000000000000001 -0.12500000000000003 -0.125
v 0.5000000000000001 -0.12499999999999997 -0.125
v 0.5000000000000001 -0.12499999999999997 0.125
vt 1 0
vt 1 1
vt 0 1
vt 0 0
vn 5.5511151231257815e-17 -1 0
usemtl none
f 5/5/2 6/6/2 7/7/2 8/8/2
o northFace
v -0.5 0.125 0.125
v -0.5 0.125 -0.125
v -0.5 -0.125 -0.125
v -0.5 -0.125 0.125
vt 1 0
vt 1 1
vt 0 1
vt 0 0
vn -1 0 0
usemtl none
f 9/9/3 10/10/3 11/11/3 12/12/3
o southFace
v 0.4999999999999999 0.12500000000000017 -0.12499999999999957
v 0.4999999999999999 0.12499999999999957 0.12500000000000017
v 0.5000000000000001 -0.12500000000000017 0.12499999999999957
v 0.5 -0.12499999999999957 -0.12500000000000017
vt 1 0
vt 1 1
vt 0 1
vt 0 0
vn 1 7.771561172376104e-16 1.8550557224337894e-30
usemtl none
f 13/13/4 14/14/4 15/15/4 16/16/4
o eastFace
v -0.5000000000000001 0.12500000000000003 -0.1249999999999995
v 0.5000000000000001 0.12499999999999997 -0.1249999999999995
v 0.5000000000000001 -0.12500000000000003 -0.1250000000000005
v -0.5000000000000001 -0.12499999999999997 -0.1250000000000005
vt 1 0
vt 1 1
vt 0 1
vt 0 0
vn 2.2186712959340953e-31 3.9968028886505635e-15 -1
usemtl none
f 17/17/5 18/18/5 19/19/5 20/20/5
o westFace
v 0.5000000009313226 0.12499998882412948 0.12500000000000105
v -0.49999999720603233 0.1250000037252903 0.12500000000000105
v -0.5000000009313226 -0.12499998882412948 0.12499999999999895
v 0.49999999720603233 -0.1250000037252903 0.12499999999999895
vt 1 0
vt 1 1
vt 0 1
vt 0 0
vn -1.257314539277358e-22 -8.43769523861409e-15 1
usemtl none
f 21/21/6 22/22/6 23/23/6 24/24/6