# Made in Blockbench 5.1.4
mtllib leafModel.mtl

o bottomFace
v 0 0 0
v 1 0 0
v 1 0 1
v 0 0 1
vt 0 1
vt 1 1
vt 1 0
vt 0 0
vn 0 -1 0
usemtl m_8bdd1c4e-faa8-6759-e544-db1035b2d536
f 1/1/1 2/2/1 3/3/1 4/4/1
o topFace
v 1 1 1
v 1 1 0
v 0 1 0
v 0 1 1
vt 1 0
vt 1 1
vt 0 1
vt 0 0
vn 0 1 0
usemtl m_8bdd1c4e-faa8-6759-e544-db1035b2d536
f 5/5/2 6/6/2 7/7/2 8/8/2
o westFace
v 1 0 1
v 1 1 0.9999999999999999
v 0 1 0.9999999999999999
v 0 0 1
vt 1 0
vt 1 1
vt 0 1
vt 0 0
vn 0 1.1102230246251565e-16 1
usemtl m_8bdd1c4e-faa8-6759-e544-db1035b2d536
f 9/9/3 10/10/3 11/11/3 12/12/3
o eastFace
v 0 1 -1.1102230246251565e-16
v 1 1 -1.1102230246251565e-16
v 1 0 1.1102230246251565e-16
v 0 0 1.1102230246251565e-16
vt 0 1
vt 1 1
vt 1 0
vt 0 0
vn 0 -2.220446049250313e-16 -1
usemtl m_8bdd1c4e-faa8-6759-e544-db1035b2d536
f 13/13/4 14/14/4 15/15/4 16/16/4
o southFace
v 1 1 0
v 1 1 1
v 1 0 1
v 1 0 0
vt 0 1
vt 1 1
vt 1 0
vt 0 0
vn 1 0 0
usemtl m_8bdd1c4e-faa8-6759-e544-db1035b2d536
f 17/17/5 18/18/5 19/19/5 20/20/5
o northFace
v 1.1102230246251565e-16 1.1102230246251565e-16 1
v 1.1102230246251565e-16 1 0.9999999999999999
v -1.1102230246251565e-16 0.9999999999999999 -1.1102230246251565e-16
v -1.1102230246251565e-16 -1.1102230246251565e-16 1.1102230246251565e-16
vt 1 0
vt 1 1
vt 0 1
vt 0 0
vn -1 2.4651903288156624e-32 2.2204460492503136e-16
usemtl m_8bdd1c4e-faa8-6759-e544-db1035b2d536
f 21/21/6 22/22/6 23/23/6 24/24/6
o westFace
v 1.0294101717798212 -0.21875 1.0294101717798216
v 1.0294101717798214 1.28125 1.0294101717798212
v -0.031249999999999778 1.28125 -0.03125000000000022
v -0.03125 -0.21875 -0.03125
vt 1 0
vt 1 1
vt 0 1
vt 0 0
vn -0.7071067811865476 1.4802973661668753e-16 0.7071067811865475
usemtl m_8bdd1c4e-faa8-6759-e544-db1035b2d536
f 25/25/7 26/26/7 27/27/7 28/28/7
o eastFace
v -0.031249999999999882 1.28125 -0.03125000000000012
v 1.0294101717798214 1.28125 1.0294101717798212
v 1.029410171779821 -0.21875 1.0294101717798216
v -0.03125000000000012 -0.21875 -0.031249999999999882
vt 0 1
vt 1 1
vt 1 0
vt 0 0
vn 0.7071067811865476 -2.220446049250313e-16 -0.7071067811865475
usemtl m_8bdd1c4e-faa8-6759-e544-db1035b2d536
f 29/29/8 30/30/8 31/31/8 32/32/8
o westFace
v 1.25 -0.21875 0.5
v 1.25 1.28125 0.4999999999999998
v -0.25 1.28125 0.4999999999999998
v -0.25 -0.21875 0.5
vt 1 0
vt 1 1
vt 0 1
vt 0 0
vn 0 1.4802973661668753e-16 1
usemtl m_8bdd1c4e-faa8-6759-e544-db1035b2d536
f 33/33/9 34/34/9 35/35/9 36/36/9
o eastFace
v -0.25 1.28125 0.49999999999999983
v 1.25 1.28125 0.49999999999999983
v 1.25 -0.21875 0.5000000000000002
v -0.25 -0.21875 0.5000000000000002
vt 0 1
vt 1 1
vt 1 0
vt 0 0
vn 0 -2.220446049250313e-16 -1
usemtl m_8bdd1c4e-faa8-6759-e544-db1035b2d536
f 37/37/10 38/38/10 39/39/10 40/40/10
o westFace
v 0.5000000000000004 -0.21875 1.1875
v 0.5000000000000004 1.28125 1.1875
v 0.5000000000000002 1.28125 -0.3125
v 0.5 -0.21875 -0.3125
vt 1 0
vt 1 1
vt 0 1
vt 0 0
vn -1 1.4802973661668753e-16 2.220446049250313e-16
usemtl m_8bdd1c4e-faa8-6759-e544-db1035b2d536
f 41/41/11 42/42/11 43/43/11 44/44/11
o eastFace
v 0.5000000000000002 1.28125 -0.3125
v 0.5000000000000004 1.28125 1.1875
v 0.5000000000000002 -0.21875 1.1875
v 0.49999999999999983 -0.21875 -0.3125
vt 0 1
vt 1 1
vt 1 0
vt 0 0
vn 1 -2.220446049250313e-16 -2.220446049250313e-16
usemtl m_8bdd1c4e-faa8-6759-e544-db1035b2d536
f 45/45/12 46/46/12 47/47/12 48/48/12
o westFace
v 0.0018398282201785854 -0.21875 0.9981601717798214
v 0.0018398282201785854 1.28125 0.9981601717798216
v 1.0625 1.28125 -0.06249999999999978
v 1.0625 -0.21875 -0.0625
vt 1 0
vt 1 1
vt 0 1
vt 0 0
vn -0.7071067811865477 1.4802973661668753e-16 -0.7071067811865475
usemtl m_8bdd1c4e-faa8-6759-e544-db1035b2d536
f 49/49/13 50/50/13 51/51/13 52/52/13
o eastFace
v 1.0625000000000002 1.28125 -0.06249999999999988
v 0.0018398282201790295 1.28125 0.9981601717798216
v 0.0018398282201785854 -0.21875 0.9981601717798212
v 1.0624999999999998 -0.21875 -0.06250000000000011
vt 0 1
vt 1 1
vt 1 0
vt 0 0
vn 0.7071067811865477 -2.220446049250313e-16 0.7071067811865475
usemtl m_8bdd1c4e-faa8-6759-e544-db1035b2d536
f 53/53/14 54/54/14 55/55/14 56/56/14