# Made in Blockbench 5.1.4
mtllib quarterBlock.mtl

o topFace
v 1 0.25 1
v 1 0.25 0
v 0 0.25 0
v 0 0.25 1
vt 1 0
vt 1 1
vt 0 1
vt 0 0
vn 0 1 0
usemtl none
f 1/1/1 2/2/1 3/3/1 4/4/1
o bottomFace
v 0 -6.123233995736766e-17 1
v 0 -6.123233995736766e-17 0
v 1 6.123233995736766e-17 0
v 1 6.123233995736766e-17 1
vt 1 0
vt 1 1
vt 0 1
vt 0 0
vn 1.2246467991473532e-16 -1 0
usemtl none
f 5/5/2 6/6/2 7/7/2 8/8/2
o eastFace
v 0 -5.551115123125783e-17 -5.721188726109809e-18
v 0 0.24999999999999994 -1.1674349118862545e-16
v 1 0.25000000000000006 5.721188726109809e-18
v 1 5.551115123125783e-17 1.1674349118862545e-16
vt 1 0
vt 1 0.25
vt 0 0.25
vt 0 0
vn 1.224646799147353e-16 -4.4408920985006257e-16 -1
usemtl none
f 9/9/3 10/10/3 11/11/3 12/12/3
o westFace
v 1 1.3877787807814457e-17 1.0000000000000002
v 1 0.25 0.9999999999999998
v 0 0.25 0.9999999999999998
v 0 -2.7755575615628914e-17 1.0000000000000002
vt 1 0
vt 1 0.25
vt 0 0.25
vt 0 0
vn 0 1.7763568394002505e-15 1
usemtl none
f 13/13/4 14/14/4 15/15/4 16/16/4
o northFace
v 2.706168622523819e-16 9.992007221626409e-16 1.0000000000000002
v 2.8449465006019636e-16 0.250000000000001 0.9999999999999998
v -2.706168622523819e-16 0.249999999999999 -2.220446049250313e-16
v -2.8449465006019636e-16 -9.992007221626409e-16 2.220446049250313e-16
vt 1 0
vt 1 0.25
vt 0 0.25
vt 0 0
vn -1 5.551115123125881e-17 5.551115123125782e-16
usemtl none
f 17/17/5 18/18/5 19/19/5 20/20/5
o southFace
v 1.0000000000000002 -2.1094237467877974e-15 5.551115123125783e-16
v 1.0000000000000002 0.2499999999999979 -5.551115123125783e-16
v 0.9999999999999997 0.2500000000000021 0.9999999999999994
v 0.9999999999999998 2.1094237467877974e-15 1.0000000000000004
vt 1 0
vt 1 0.25
vt 0 0.25
vt 0 0
vn 1 2.465190328815662e-30 5.551115123125783e-16
usemtl none
f 21/21/6 22/22/6 23/23/6 24/24/6