# Made in Blockbench 5.1.4
mtllib sapling.mtl

o 24-southFace
v 0.625 0.5 0.375
v 0.625 0.5 0.625
v 0.625 0.25 0.625
v 0.625 0.25 0.375
vt 0 1
vt 1 1
vt 1 0
vt 0 0
vn 1 0 0
usemtl m_b4bbc4d8-ebed-8afe-e697-78ae64899078
f 1/1/1 2/2/1 3/3/1 4/4/1
o 24-bottomFace
v 0.375 0.25 0.375
v 0.625 0.25 0.375
v 0.625 0.25 0.625
v 0.375 0.25 0.625
vt 0 1
vt 1 1
vt 1 0
vt 0 0
vn 0 -1 0
usemtl m_b4bbc4d8-ebed-8afe-e697-78ae64899078
f 5/5/2 6/6/2 7/7/2 8/8/2
o 24-northFace
v 0.375 0.25 0.625
v 0.375 0.5 0.625
v 0.375 0.5 0.375
v 0.375 0.24999999999999997 0.375
vt 1 0
vt 1 1
vt 0 1
vt 0 0
vn -1 2.4651903288156624e-32 2.2204460492503136e-16
usemtl m_b4bbc4d8-ebed-8afe-e697-78ae64899078
f 9/9/3 10/10/3 11/11/3 12/12/3
o 24-eastFace
v 0.375 0.5 0.375
v 0.625 0.5 0.375
v 0.625 0.25 0.375
v 0.375 0.25 0.375
vt 0 1
vt 1 1
vt 1 0
vt 0 0
vn 0 -2.220446049250313e-16 -1
usemtl m_b4bbc4d8-ebed-8afe-e697-78ae64899078
f 13/13/4 14/14/4 15/15/4 16/16/4
o 24-topFace
v 0.625 0.5 0.625
v 0.625 0.5 0.375
v 0.375 0.5 0.375
v 0.375 0.5 0.625
vt 1 0
vt 1 1
vt 0 1
vt 0 0
vn 0 1 0
usemtl m_b4bbc4d8-ebed-8afe-e697-78ae64899078
f 17/17/5 18/18/5 19/19/5 20/20/5
o 24-westFace
v 0.625 0.25 0.625
v 0.625 0.5 0.625
v 0.375 0.5 0.625
v 0.375 0.25 0.625
vt 1 0
vt 1 1
vt 0 1
vt 0 0
vn 0 1.1102230246251565e-16 1
usemtl m_b4bbc4d8-ebed-8afe-e697-78ae64899078
f 21/21/6 22/22/6 23/23/6 24/24/6
o 8-southFace
v 0.53125 0.25 0.46875
v 0.53125 0.25 0.53125
v 0.53125 0 0.53125
v 0.53125 0 0.46875
vt 0 1
vt 0.0625 1
vt 0.0625 0.75
vt 0 0.75
vn 1 0 0
usemtl m_5c6fd6fc-d82a-a4d1-8051-b9c464502c33
f 25/25/7 26/26/7 27/27/7 28/28/7
o 8-bottomFace
v 0.46875 0 0.46875
v 0.53125 0 0.46875
v 0.53125 0 0.53125
v 0.46875 0 0.53125
vt 0.6875 0.28125
vt 0.75 0.28125
vt 0.75 0.21875
vt 0.6875 0.21875
vn 0 -1 0
usemtl m_5c6fd6fc-d82a-a4d1-8051-b9c464502c33
f 29/29/8 30/30/8 31/31/8 32/32/8
o 8-northFace
v 0.46875 2.7755575615628914e-17 0.53125
v 0.46875 0.25 0.53125
v 0.46875 0.24999999999999997 0.46875
v 0.46875 -2.7755575615628914e-17 0.46875
vt 0.46875 0.375
vt 0.46875 0.625
vt 0.40625 0.625
vt 0.40625 0.375
vn -1 6.162975822039156e-33 2.2204460492503136e-16
usemtl m_5c6fd6fc-d82a-a4d1-8051-b9c464502c33
f 33/33/9 34/34/9 35/35/9 36/36/9
o 8-eastFace
v 0.46875 0.25 0.46875
v 0.53125 0.25 0.46875
v 0.53125 0 0.46875
v 0.46875 0 0.46875
vt 0 0.25
vt 0.0625 0.25
vt 0.0625 0
vt 0 0
vn 0 -5.551115123125783e-17 -1
usemtl m_5c6fd6fc-d82a-a4d1-8051-b9c464502c33
f 37/37/10 38/38/10 39/39/10 40/40/10
o 8-topFace
v 0.53125 0.25 0.53125
v 0.53125 0.25 0.46875
v 0.46875 0.25 0.46875
v 0.46875 0.25 0.53125
vt 0.65625 0.34375
vt 0.65625 0.40625
vt 0.59375 0.40625
vt 0.59375 0.34375
vn 0 1 0
usemtl m_5c6fd6fc-d82a-a4d1-8051-b9c464502c33
f 41/41/11 42/42/11 43/43/11 44/44/11
o 8-westFace
v 0.53125 0 0.53125
v 0.53125 0.25 0.53125
v 0.46875 0.25 0.53125
v 0.46875 0 0.53125
vt 1 0
vt 1 0.25
vt 0.9375 0.25
vt 0.9375 0
vn 0 2.7755575615628914e-17 1
usemtl m_5c6fd6fc-d82a-a4d1-8051-b9c464502c33
f 45/45/12 46/46/12 47/47/12 48/48/12