# Made in Blockbench 4.12.6
mtllib strawChest.mtl

o topFace
v 0.8125 0.03125 0.8125
v 0.8125 0.03125 0.1875
v 0.1875 0.03125 0.8125
v 0.1875 0.03125 0.1875
vt 1 0
vt 1 1
vt 0 1
vt 0 0
vn 0 1 0
usemtl none
f 1/1/1 2/2/1 4/3/1 3/4/1
o eastFace
v 0.8125 0.5 0.18750000000000006
v 0.8125 0 0.18749999999999994
v 0.1875 0.5 0.18750000000000006
v 0.1875 0 0.18749999999999994
vt 1 0
vt 1 1
vt 0 1
vt 0 0
vn 0 2.220446049250313e-16 -1
usemtl none
f 5/5/2 6/6/2 8/7/2 7/8/2
o westFace
v 0.1875 0.5 0.8125000000000006
v 0.1875 0 0.8124999999999996
v 0.8125 0.5 0.8125000000000004
v 0.8125 0 0.8124999999999994
vt 1 0
vt 1 1
vt 0 1
vt 0 0
vn 1.224646799147353e-16 -2.1094237467877974e-15 1
usemtl none
f 9/9/3 10/10/3 12/11/3 11/12/3
o southFace
v 0.8125 0.49999999999999845 0.8125000000000012
v 0.8125 -1.5543122344752192e-15 0.8124999999999988
v 0.8125 0.5000000000000016 0.18750000000000122
v 0.8125 1.5265566588595902e-15 0.18749999999999878
vt 1 0
vt 1 1
vt 0 1
vt 0 0
vn 1 -5.5511151231257285e-17 -1.1102230246251593e-16
usemtl none
f 13/13/4 14/14/4 16/15/4 15/16/4
o northFace
v 0.18750000000000003 0.5000000000000016 0.18750000000000122
v 0.18750000000000006 1.5265566588595902e-15 0.18749999999999878
v 0.18749999999999994 0.49999999999999845 0.8125000000000012
v 0.18749999999999997 -1.5543122344752192e-15 0.8124999999999988
vt 1 0
vt 1 1
vt 0 1
vt 0 0
vn -1 -5.5511151231257285e-17 -1.1102230246251593e-16
usemtl none
f 17/17/5 18/18/5 20/19/5 19/20/5
o westFace
v 0.25 0.5 0.25000000000000056
v 0.25 0 0.2499999999999995
v 0.75 0.5 0.2500000000000005
v 0.75 0 0.24999999999999944
vt 1 0
vt 1 1
vt 0 1
vt 0 0
vn 1.224646799147353e-16 -2.1094237467877974e-15 1
usemtl none
f 21/21/6 22/22/6 24/23/6 23/24/6
o eastFace
v 0.75 0.5 0.75
v 0.75 0 0.75
v 0.25 0.5 0.75
v 0.25 0 0.75
vt 1 0
vt 1 1
vt 0 1
vt 0 0
vn 0 2.220446049250313e-16 -1
usemtl none
f 25/25/7 26/26/7 28/27/7 27/28/7
o southFace
v 0.25000000000000006 0.4999999999999988 0.7500000000000012
v 0.25 -1.2212453270876722e-15 0.7499999999999988
v 0.25 0.5000000000000012 0.2500000000000012
v 0.24999999999999994 1.2212453270876722e-15 0.24999999999999878
vt 1 0
vt 1 1
vt 0 1
vt 0 0
vn 1 -5.5511151231257285e-17 -1.1102230246251593e-16
usemtl none
f 29/29/8 30/30/8 32/31/8 31/32/8
o northFace
v 0.75 0.5000000000000012 0.2500000000000012
v 0.75 1.2212453270876722e-15 0.24999999999999878
v 0.75 0.4999999999999988 0.7500000000000012
v 0.75 -1.2212453270876722e-15 0.7499999999999988
vt 1 0
vt 1 1
vt 0 1
vt 0 0
vn -1 -5.5511151231257285e-17 -1.1102230246251593e-16
usemtl none
f 33/33/9 34/34/9 36/35/9 35/36/9
o topFace
v 0.75 0.5 0.8125
v 0.75 0.5 0.75
v 0.25 0.5 0.8125
v 0.25 0.5 0.75
vt 1 0
vt 1 1
vt 0 1
vt 0 0
vn 0 1 0
usemtl none
f 37/37/10 38/38/10 40/39/10 39/40/10
o topFace
v 0.25 0.5 0.8125
v 0.25 0.5 0.1875
v 0.1875 0.5 0.8125
v 0.1875 0.5 0.1875
vt 1 0
vt 1 1
vt 0 1
vt 0 0
vn 0 1 0
usemtl none
f 41/41/11 42/42/11 44/43/11 43/44/11
o topFace
v 0.75 0.5 0.25
v 0.75 0.5 0.1875
v 0.25 0.5 0.25
v 0.25 0.5 0.1875
vt 1 0
vt 1 1
vt 0 1
vt 0 0
vn 0 1 0
usemtl none
f 45/45/12 46/46/12 48/47/12 47/48/12
o topFace
v 0.8125 0.5 0.8125
v 0.8125 0.5 0.1875
v 0.75 0.5 0.8125
v 0.75 0.5 0.1875
vt 1 0
vt 1 1
vt 0 1
vt 0 0
vn 0 1 0
usemtl none
f 49/49/13 50/50/13 52/51/13 51/52/13
o topFace
v 0.75 0.46875 0.75
v 0.75 0.46875 0.25
v 0.25 0.46875 0.75
v 0.25 0.46875 0.25
vt 1 0
vt 1 1
vt 0 1
vt 0 0
vn 0 1 0
usemtl none
f 53/53/14 54/54/14 56/55/14 55/56/14
o topFace
v 0.53125 0.59375 0.625
v 0.53125 0.59375 0.375
v 0.46875 0.59375 0.625
v 0.46875 0.59375 0.375
vt 1 0
vt 1 1
vt 0 1
vt 0 0
vn 0 1 0
usemtl none
f 57/57/15 58/58/15 60/59/15 59/60/15
o westFace
v 0.46875 0.59375 0.6250000000000001
v 0.46875 0.46875 0.6249999999999999
v 0.53125 0.59375 0.6250000000000001
v 0.53125 0.46875 0.6249999999999999
vt 1 0
vt 1 1
vt 0 1
vt 0 0
vn 1.224646799147353e-16 -2.1094237467877974e-15 1
usemtl none
f 61/61/16 62/62/16 64/63/16 63/64/16
o eastFace
v 0.53125 0.59375 0.375
v 0.53125 0.46875 0.375
v 0.46875 0.59375 0.375
v 0.46875 0.46875 0.375
vt 1 0
vt 1 1
vt 0 1
vt 0 0
vn 0 2.220446049250313e-16 -1
usemtl none
f 65/65/17 66/66/17 68/67/17 67/68/17
o southFace
v 0.53125 0.5937499999999993 0.6250000000000002
v 0.53125 0.5312499999999993 0.6249999999999999
v 0.53125 0.5937500000000007 0.37500000000000017
v 0.53125 0.5312500000000007 0.37499999999999983
vt 1 0
vt 1 1
vt 0 1
vt 0 0
vn 1 -5.5511151231257285e-17 -1.1102230246251593e-16
usemtl none
f 69/69/18 70/70/18 72/71/18 71/72/18
o northFace
v 0.46875 0.5937500000000007 0.37500000000000017
v 0.46875 0.5312500000000007 0.37499999999999983
v 0.46875 0.5937499999999993 0.6250000000000002
v 0.46875 0.5312499999999993 0.6249999999999999
vt 1 0
vt 1 1
vt 0 1
vt 0 0
vn -1 -5.5511151231257285e-17 -1.1102230246251593e-16
usemtl none
f 73/73/19 74/74/19 76/75/19 75/76/19
o westFace
v 0.46875 0.53125 0.43750000000000006
v 0.46875 0.46875 0.43749999999999994
v 0.53125 0.53125 0.43750000000000006
v 0.53125 0.46875 0.43749999999999994
vt 1 0
vt 1 1
vt 0 1
vt 0 0
vn 1.224646799147353e-16 -2.1094237467877974e-15 1
usemtl none
f 77/77/20 78/78/20 80/79/20 79/80/20
o eastFace
v 0.53125 0.53125 0.5625
v 0.53125 0.46875 0.5625
v 0.46875 0.53125 0.5625
v 0.46875 0.46875 0.5625
vt 1 0
vt 1 1
vt 0 1
vt 0 0
vn 0 2.220446049250313e-16 -1
usemtl none
f 81/81/21 82/82/21 84/83/21 83/84/21
o southFace
v 0.53125 0.5312499999999999 0.43750000000000017
v 0.53125 0.46874999999999983 0.43749999999999983
v 0.53125 0.5312500000000001 0.37500000000000017
v 0.53125 0.46875000000000017 0.37499999999999983
vt 1 0
vt 1 1
vt 0 1
vt 0 0
vn 1 -5.5511151231257285e-17 -1.1102230246251593e-16
usemtl none
f 85/85/22 86/86/22 88/87/22 87/88/22
o southFace
v 0.53125 0.5312499999999999 0.6250000000000001
v 0.53125 0.46874999999999983 0.6249999999999999
v 0.53125 0.5312500000000001 0.5625000000000001
v 0.53125 0.46875000000000017 0.5624999999999999
vt 1 0
vt 1 1
vt 0 1
vt 0 0
vn 1 -5.5511151231257285e-17 -1.1102230246251593e-16
usemtl none
f 89/89/23 90/90/23 92/91/23 91/92/23
o northFace
v 0.46875 0.5312500000000001 0.5625000000000001
v 0.46875 0.46875000000000017 0.5624999999999999
v 0.46875 0.5312499999999999 0.6250000000000001
v 0.46875 0.46874999999999983 0.6249999999999999
vt 1 0
vt 1 1
vt 0 1
vt 0 0
vn -1 -5.5511151231257285e-17 -1.1102230246251593e-16
usemtl none
f 93/93/24 94/94/24 96/95/24 95/96/24
o northFace
v 0.46875 0.5312500000000001 0.37500000000000017
v 0.46875 0.46875000000000017 0.37499999999999983
v 0.46875 0.5312499999999999 0.43750000000000017
v 0.46875 0.46874999999999983 0.43749999999999983
vt 1 0
vt 1 1
vt 0 1
vt 0 0
vn -1 -5.5511151231257285e-17 -1.1102230246251593e-16
usemtl none
f 97/97/25 98/98/25 100/99/25 99/100/25
o bottomFace
v 0.46875 0.53125 0.5625
v 0.46875 0.53125 0.4375
v 0.53125 0.53125 0.5625
v 0.53125 0.53125 0.4375
vt 1 0
vt 1 1
vt 0 1
vt 0 0
vn 1.2246467991473532e-16 -1 0
usemtl none
f 101/101/26 102/102/26 104/103/26 103/104/26