# Made in Blockbench 4.12.6
mtllib strawChestBuild0.mtl

o topFace
v 0.8125 0.03125 0.8125
v 0.8125 0.03125 0.1875
v 0.1875 0.03125 0.8125
v 0.1875 0.03125 0.1875
vt 1 0
vt 1 1
vt 0 1
vt 0 0
vn 0 1 0
usemtl none
f 1/1/1 2/2/1 4/3/1 3/4/1
o topFace
v 0.25 0.1875 0.8125
v 0.25 0.1875 0.1875
v 0.1875 0.1875 0.8125
v 0.1875 0.1875 0.1875
vt 1 0
vt 1 1
vt 0 1
vt 0 0
vn 0 1 0
usemtl none
f 5/5/2 6/6/2 8/7/2 7/8/2
o eastFace
v 0.8125 0.1875 0.18750000000000003
v 0.8125 0 0.18749999999999997
v 0.1875 0.1875 0.18750000000000003
v 0.1875 0 0.18749999999999997
vt 1 0
vt 1 1
vt 0 1
vt 0 0
vn 0 2.220446049250313e-16 -1
usemtl none
f 9/9/3 10/10/3 12/11/3 11/12/3
o westFace
v 0.1875 0.1875 0.8125000000000002
v 0.1875 1.3877787807814457e-17 0.8124999999999999
v 0.8125 0.1875 0.8125000000000001
v 0.8125 -1.3877787807814457e-17 0.8124999999999998
vt 1 0
vt 1 1
vt 0 1
vt 0 0
vn 1.224646799147353e-16 -2.1094237467877974e-15 1
usemtl none
f 13/13/4 14/14/4 16/15/4 15/16/4
o southFace
v 0.8125 0.18749999999999847 0.8125000000000004
v 0.8125 -1.5265566588595902e-15 0.8124999999999996
v 0.8125 0.18750000000000153 0.18750000000000044
v 0.8125 1.5265566588595902e-15 0.18749999999999956
vt 1 0
vt 1 1
vt 0 1
vt 0 0
vn 1 -5.5511151231257285e-17 -1.1102230246251593e-16
usemtl none
f 17/17/5 18/18/5 20/19/5 19/20/5
o northFace
v 0.18750000000000003 0.18750000000000153 0.18750000000000044
v 0.18750000000000003 1.5265566588595902e-15 0.18749999999999956
v 0.18749999999999997 0.18749999999999847 0.8125000000000004
v 0.18749999999999997 -1.5265566588595902e-15 0.8124999999999996
vt 1 0
vt 1 1
vt 0 1
vt 0 0
vn -1 -5.5511151231257285e-17 -1.1102230246251593e-16
usemtl none
f 21/21/6 22/22/6 24/23/6 23/24/6
o topFace
v 0.8125 0.1875 0.8125
v 0.8125 0.1875 0.1875
v 0.75 0.1875 0.8125
v 0.75 0.1875 0.1875
vt 1 0
vt 1 1
vt 0 1
vt 0 0
vn 0 1 0
usemtl none
f 25/25/7 26/26/7 28/27/7 27/28/7
o topFace
v 0.75 0.1875 0.8125
v 0.75 0.1875 0.75
v 0.25 0.1875 0.8125
v 0.25 0.1875 0.75
vt 1 0
vt 1 1
vt 0 1
vt 0 0
vn 0 1 0
usemtl none
f 29/29/8 30/30/8 32/31/8 31/32/8
o topFace
v 0.75 0.1875 0.25
v 0.75 0.1875 0.1875
v 0.25 0.1875 0.25
v 0.25 0.1875 0.1875
vt 1 0
vt 1 1
vt 0 1
vt 0 0
vn 0 1 0
usemtl none
f 33/33/9 34/34/9 36/35/9 35/36/9
o westFace
v 0.25 0.1875 0.2500000000000002
v 0.25 1.3877787807814457e-17 0.24999999999999983
v 0.75 0.1875 0.25000000000000017
v 0.75 -1.3877787807814457e-17 0.24999999999999978
vt 1 0
vt 1 1
vt 0 1
vt 0 0
vn 1.224646799147353e-16 -2.1094237467877974e-15 1
usemtl none
f 37/37/10 38/38/10 40/39/10 39/40/10
o eastFace
v 0.75 0.1875 0.75
v 0.75 0 0.75
v 0.25 0.1875 0.75
v 0.25 0 0.75
vt 1 0
vt 1 1
vt 0 1
vt 0 0
vn 0 2.220446049250313e-16 -1
usemtl none
f 41/41/11 42/42/11 44/43/11 43/44/11
o southFace
v 0.25000000000000006 0.18749999999999878 0.7500000000000004
v 0.25 -1.2212453270876722e-15 0.7499999999999996
v 0.24999999999999997 0.18750000000000122 0.25000000000000044
v 0.24999999999999997 1.2212453270876722e-15 0.24999999999999956
vt 1 0
vt 1 1
vt 0 1
vt 0 0
vn 1 -5.5511151231257285e-17 -1.1102230246251593e-16
usemtl none
f 45/45/12 46/46/12 48/47/12 47/48/12
o northFace
v 0.75 0.18750000000000122 0.25000000000000044
v 0.75 1.2212453270876722e-15 0.24999999999999956
v 0.75 0.18749999999999878 0.7500000000000004
v 0.75 -1.2212453270876722e-15 0.7499999999999996
vt 1 0
vt 1 1
vt 0 1
vt 0 0
vn -1 -5.5511151231257285e-17 -1.1102230246251593e-16
usemtl none
f 49/49/13 50/50/13 52/51/13 51/52/13