# Made in Blockbench 5.1.4
mtllib tilledSoilModel.mtl

o bottomFace
v 0 0 0
v 1 0 0
v 1 0 1
v 0 0 1
vt 0 1
vt 1 1
vt 1 0
vt 0 0
vn 0 -1 0
usemtl m_a47f80ba-ec6d-bb64-fc31-bcb7025d8826
f 1/1/1 2/2/1 3/3/1 4/4/1
o topFace
v 1 0.90625 1
v 1 0.90625 0
v 0 0.90625 0
v 0 0.90625 1
vt 1 0
vt 1 1
vt 0 1
vt 0 0
vn 0 1 0
usemtl none
f 5/5/2 6/6/2 7/7/2 8/8/2
o westFace
v 1 0 1
v 1 0.90625 1
v 0 0.90625 1
v 0 0 1
vt 1 0
vt 1 0.90625
vt 0 0.90625
vt 0 0
vn 0 0 1
usemtl m_a47f80ba-ec6d-bb64-fc31-bcb7025d8826
f 9/9/3 10/10/3 11/11/3 12/12/3
o eastFace
v 0 0.90625 0
v 1 0.90625 0
v 1 0 0
v 0 0 0
vt 0 0.90625
vt 1 0.90625
vt 1 0
vt 0 0
vn 0 0 -1
usemtl m_a47f80ba-ec6d-bb64-fc31-bcb7025d8826
f 13/13/4 14/14/4 15/15/4 16/16/4
o southFace
v 1 0.90625 0
v 1 0.90625 1
v 1 0 1
v 1 0 0
vt 0 0.90625
vt 1 0.90625
vt 1 0
vt 0 0
vn 1 0 0
usemtl m_a47f80ba-ec6d-bb64-fc31-bcb7025d8826
f 17/17/5 18/18/5 19/19/5 20/20/5
o northFace
v 0 0 1
v 0 0.90625 1
v 0 0.90625 0
v 0 0 0
vt 1 0
vt 1 0.90625
vt 0 0.90625
vt 0 0
vn -1 0 0
usemtl m_a47f80ba-ec6d-bb64-fc31-bcb7025d8826
f 21/21/6 22/22/6 23/23/6 24/24/6