# Made in Blockbench 5.1.4
mtllib topOfFullWater.mtl

o westFace
v 1 0.921875 1
v 1 1.015625 1
v 0 1.015625 1
v 0 0.921875 1
vt 1 0.90625
vt 1 1
vt 0 1
vt 0 0.90625
vn 0 0 1
usemtl m_e77fc080-fdc4-f06e-425e-f37e19ff5abd
f 1/1/1 2/2/1 3/3/1 4/4/1
o eastFace
v 0 1.015625 0
v 1 1.015625 0
v 1 0.921875 0
v 0 0.921875 0
vt 0 1
vt 1 1
vt 1 0.90625
vt 0 0.90625
vn 0 0 -1
usemtl m_e77fc080-fdc4-f06e-425e-f37e19ff5abd
f 5/5/2 6/6/2 7/7/2 8/8/2
o southFace
v 1 1.015625 0
v 1 1.015625 1
v 1 0.921875 1
v 1 0.921875 0
vt 0 1
vt 1 1
vt 1 0.90625
vt 0 0.90625
vn 1 0 0
usemtl m_e77fc080-fdc4-f06e-425e-f37e19ff5abd
f 9/9/3 10/10/3 11/11/3 12/12/3
o northFace
v 0 0.921875 1
v 0 1.015625 1
v 0 1.015625 0
v 0 0.921875 0
vt 1 0.90625
vt 1 1
vt 0 1
vt 0 0.90625
vn -1 0 0
usemtl m_e77fc080-fdc4-f06e-425e-f37e19ff5abd
f 13/13/4 14/14/4 15/15/4 16/16/4