# Made in Blockbench 5.1.4
mtllib torchWest.mtl

o southFace
v 0.5625 0.960075995760483 0.39899841226347266
v 0.5625 0.897575995760483 0.5072515877365273
v 0.5625 0.03155059197604437 0.007251587736527565
v 0.5625 0.09405059197604432 -0.10100158773652734
vt 0.4375 0.8125
vt 0.5625 0.8125
vt 0.5625 0
vt 0.453125 0
vn 1 0 0
usemtl m_26796d2c-7e40-b6bb-4f99-0f82c68fde1d
f 1/1/1 2/2/1 3/3/1 4/4/1
o eastFace
v 0.4375 0.9600759957604832 0.39899841226347244
v 0.5625 0.9600759957604832 0.39899841226347244
v 0.5625 0.0940505919760442 -0.10100158773652734
v 0.4375 0.0940505919760442 -0.10100158773652734
vt 0.5625 0.8125
vt 0.4375 0.8125
vt 0.4375 0
vt 0.5625 0
vn 0 0.49999999999999956 -0.8660254037844389
usemtl m_26796d2c-7e40-b6bb-4f99-0f82c68fde1d
f 5/5/2 6/6/2 7/7/2 8/8/2
o topFace
v 0.5625 0.8975759957604832 0.5072515877365273
v 0.5625 0.960075995760483 0.39899841226347266
v 0.4375 0.960075995760483 0.39899841226347266
v 0.4375 0.8975759957604832 0.5072515877365273
vt 0.125 0
vt 0.125 0.125
vt 0 0.125
vt 0 0
vn 0 0.8660254037844387 0.49999999999999994
usemtl m_26796d2c-7e40-b6bb-4f99-0f82c68fde1d
f 9/9/3 10/10/3 11/11/3 12/12/3
o westFace
v 0.5625 0.03155059197604432 0.007251587736527343
v 0.5625 0.8975759957604831 0.5072515877365271
v 0.4375 0.8975759957604831 0.5072515877365271
v 0.4375 0.03155059197604432 0.007251587736527343
vt 0.5625 0
vt 0.5625 0.8125
vt 0.4375 0.8125
vt 0.4375 0
vn 0 -0.4999999999999998 0.8660254037844388
usemtl m_26796d2c-7e40-b6bb-4f99-0f82c68fde1d
f 13/13/4 14/14/4 15/15/4 16/16/4
o northFace
v 0.4375000000000002 0.03155059197604437 0.007251587736527565
v 0.4375000000000002 0.8975759957604832 0.5072515877365273
v 0.4374999999999998 0.9600759957604827 0.39899841226347244
v 0.4374999999999998 0.0940505919760442 -0.10100158773652734
vt 0.5625 0
vt 0.5625 0.8125
vt 0.4375 0.8125
vt 0.4375 0
vn -1 -1.7763568394002524e-15 3.0767402982137084e-15
usemtl m_26796d2c-7e40-b6bb-4f99-0f82c68fde1d
f 17/17/5 18/18/5 19/19/5 20/20/5