# Made in Blockbench 5.1.4
mtllib torchBase.mtl

o topFace
v 0.5625 1 0.5625
v 0.5625 1 0.4375
v 0.4375 1 0.4375
v 0.4375 1 0.5625
vt 0.125 0
vt 0.125 0.125
vt 0 0.125
vt 0 0
vn 0 1 0
usemtl m_26796d2c-7e40-b6bb-4f99-0f82c68fde1d
f 1/1/1 2/2/1 3/3/1 4/4/1
o northFace
v 0.4375000000000002 0 0.5625
v 0.4375000000000002 1 0.5624999999999998
v 0.4374999999999998 0.9999999999999998 0.4375
v 0.4374999999999998 -1.1102230246251565e-16 0.4375
vt 0.5625 0
vt 0.5625 0.8125
vt 0.4375 0.8125
vt 0.4375 0
vn -1 7.888609052210132e-31 3.552713678800507e-15
usemtl m_26796d2c-7e40-b6bb-4f99-0f82c68fde1d
f 5/5/2 6/6/2 7/7/2 8/8/2
o westFace
v 0.5625 0 0.5625
v 0.5625 1 0.5624999999999998
v 0.4375 1 0.5624999999999998
v 0.4375 0 0.5625
vt 0.5625 0
vt 0.5625 0.8125
vt 0.4375 0.8125
vt 0.4375 0
vn 0 2.220446049250313e-16 1
usemtl m_26796d2c-7e40-b6bb-4f99-0f82c68fde1d
f 9/9/3 10/10/3 11/11/3 12/12/3
o southFace
v 0.5625 1 0.4375
v 0.5625 1 0.5625
v 0.5625 0 0.5625
v 0.5625 0 0.4375
vt 0.4375 0.8125
vt 0.5625 0.8125
vt 0.5625 0
vt 0.453125 0
vn 1 0 0
usemtl m_26796d2c-7e40-b6bb-4f99-0f82c68fde1d
f 13/13/4 14/14/4 15/15/4 16/16/4
o eastFace
v 0.4375 1 0.4374999999999998
v 0.5625 1 0.4374999999999998
v 0.5625 0 0.4375000000000002
v 0.4375 0 0.4375000000000002
vt 0.5625 0.8125
vt 0.4375 0.8125
vt 0.4375 0
vt 0.5625 0
vn 0 -4.440892098500626e-16 -1
usemtl m_26796d2c-7e40-b6bb-4f99-0f82c68fde1d
f 17/17/5 18/18/5 19/19/5 20/20/5