# Made in Blockbench 5.1.4
mtllib torchNorth.mtl

o southFace
v 0.6010015877365273 0.9600759957604832 0.4375
v 0.6010015877365273 0.9600759957604832 0.5625
v 1.1010015877365273 0.09405059197604437 0.5625
v 1.1010015877365273 0.09405059197604437 0.4375
vt 0.4375 0.8125
vt 0.5625 0.8125
vt 0.5625 0
vt 0.453125 0
vn 0.8660254037844387 0.49999999999999994 0
usemtl m_26796d2c-7e40-b6bb-4f99-0f82c68fde1d
f 1/1/1 2/2/1 3/3/1 4/4/1
o eastFace
v 0.4927484122634726 0.897575995760483 0.4374999999999998
v 0.6010015877365276 0.960075995760483 0.4374999999999998
v 1.1010015877365273 0.09405059197604415 0.4375000000000002
v 0.9927484122634724 0.03155059197604426 0.4375000000000002
vt 0.5625 0.8125
vt 0.4375 0.8125
vt 0.4375 0
vt 0.5625 0
vn 2.2204460492503128e-16 -3.845925372767128e-16 -1
usemtl m_26796d2c-7e40-b6bb-4f99-0f82c68fde1d
f 5/5/2 6/6/2 7/7/2 8/8/2
o topFace
v 0.6010015877365275 0.9600759957604827 0.5625
v 0.6010015877365275 0.9600759957604827 0.4375
v 0.49274841226347255 0.8975759957604827 0.4375
v 0.49274841226347255 0.8975759957604827 0.5625
vt 0.125 0
vt 0.125 0.125
vt 0 0.125
vt 0 0
vn -0.49999999999999994 0.8660254037844387 0
usemtl m_26796d2c-7e40-b6bb-4f99-0f82c68fde1d
f 9/9/3 10/10/3 11/11/3 12/12/3
o westFace
v 1.1010015877365273 0.09405059197604415 0.5625
v 0.6010015877365276 0.960075995760483 0.5624999999999998
v 0.4927484122634726 0.897575995760483 0.5624999999999998
v 0.9927484122634724 0.03155059197604426 0.5625
vt 0.5625 0
vt 0.5625 0.8125
vt 0.4375 0.8125
vt 0.4375 0
vn -1.1102230246251564e-16 1.922962686383564e-16 1
usemtl m_26796d2c-7e40-b6bb-4f99-0f82c68fde1d
f 13/13/4 14/14/4 15/15/4 16/16/4
o northFace
v 0.9927484122634727 0.03155059197604437 0.5625
v 0.4927484122634728 0.897575995760483 0.5624999999999998
v 0.4927484122634726 0.8975759957604825 0.4375
v 0.9927484122634724 0.03155059197604404 0.4375
vt 0.5625 0
vt 0.5625 0.8125
vt 0.4375 0.8125
vt 0.4375 0
vn -0.8660254037844387 -0.49999999999999994 3.552713678800507e-15
usemtl m_26796d2c-7e40-b6bb-4f99-0f82c68fde1d
f 17/17/5 18/18/5 19/19/5 20/20/5