# Made in Blockbench 5.1.4
mtllib waterFlowNorth6.mtl

o bottomFace
v 0 0 0
v 1 0 0
v 1 0 1
v 0 0 1
vt 0 1
vt 1 1
vt 1 0
vt 0 0
vn 0 -1 0
usemtl m_e77fc080-fdc4-f06e-425e-f37e19ff5abd
f 1/1/1 2/2/1 3/3/1 4/4/1
o northFace
v 1.1102230246251565e-16 1.1102230246251565e-16 1
v 1.1102230246251565e-16 0.15625 0.9999999999999999
v -1.1102230246251565e-16 0.1562499999999999 -1.1102230246251565e-16
v -1.1102230246251565e-16 -5.551115123125783e-17 1.1102230246251565e-16
vt 1 0
vt 1 0.15625
vt 0 0.15625
vt 0 0
vn -1 1.577721810442025e-31 2.2204460492503136e-16
usemtl m_e77fc080-fdc4-f06e-425e-f37e19ff5abd
f 5/5/2 6/6/2 7/7/2 8/8/2
o southFace
v 1 0.28125 0
v 1 0.28125 1
v 1 0 1
v 1 0 0
vt 0 0.53125
vt 1 0.53125
vt 1 0.25
vt 0 0.25
vn 1 0 0
usemtl m_e77fc080-fdc4-f06e-425e-f37e19ff5abd
f 9/9/3 10/10/3 11/11/3 12/12/3
o westFace
v 1 0 1
v 1 0.28125 1
v 1.1102230246251565e-16 0.15625 0.9999999999999999
v 0 0 1
vt 1 0
vt 1 0.28125
vt 0 0.15625
vt 0 0
vn -1.1102230246251568e-16 0 1
usemtl m_e77fc080-fdc4-f06e-425e-f37e19ff5abd
f 13/13/4 14/14/4 15/15/4 16/16/4
o topFace
v 1 0.28125 1
v 1 0.28125 0
v -1.1102230246251565e-16 0.1562499999999999 -1.1102230246251565e-16
v 1.1102230246251565e-16 0.15625 0.9999999999999999
vt 1 0
vt 1 1
vt 0 1
vt 0 0
vn -0.12403473458920858 0.9922778767136677 0
usemtl m_e77fc080-fdc4-f06e-425e-f37e19ff5abd
f 17/17/5 18/18/5 19/19/5 20/20/5
o eastFace
v -1.1102230246251565e-16 0.1562499999999999 -1.1102230246251565e-16
v 1 0.28125 0
v 1 0 1.1102230246251565e-16
v 0 0 1.1102230246251565e-16
vt 1 0.15625
vt 0 0.28125
vt 0 0
vt 1 0
vn 1.6036554800141155e-16 -3.9474596431116675e-16 -1
usemtl m_e77fc080-fdc4-f06e-425e-f37e19ff5abd
f 21/21/6 22/22/6 23/23/6 24/24/6