# Made in Blockbench 4.12.4
mtllib xCrossBlock.mtl

o northFace
v 0.7129283905932742 0.9999999999999994 0.7129283905932741
v 0.005821609406726713 1.0000000000000004 0.005821609406726602
v 0.7129283905932733 -5.551115123125783e-16 0.7129283905932734
v 0.005821609406725825 5.551115123125783e-16 0.005821609406725936
vt 1 0
vt 1 1
vt 0 1
vt 0 0
vn -0.7071067811865476 1.1775693440128312e-16 0.7071067811865476
usemtl none
f 1/1/1 2/2/1 4/3/1 3/4/1
o southFace
v 0.7129283905932742 0.9999999999999994 0.7129283905932741
v 0.005821609406726713 1.0000000000000004 0.005821609406726602
v 0.7129283905932733 -5.551115123125783e-16 0.7129283905932734
v 0.005821609406725825 5.551115123125783e-16 0.005821609406725936
vt 1 0
vt 1 1
vt 0 1
vt 0 0
vn -0.7071067811865476 1.1775693440128312e-16 0.7071067811865476
usemtl none
f 5/5/2 6/6/2 8/7/2 7/8/2
o eastFace
v 0.7129283905932746 1.0000000000000022 0.005821609406730155
v 0.005821609406726991 0.9999999999999978 0.7129283905932776
v 0.7129283905932731 2.220446049250313e-15 0.005821609406722383
v 0.0058216094067254365 -2.220446049250313e-15 0.7129283905932698
vt 1 0
vt 1 1
vt 0 1
vt 0 0
vn 0.7071067811865475 -6.594388326471855e-15 0.7071067811865476
usemtl none
f 9/9/3 10/10/3 12/11/3 11/12/3
o westFace
v 0.7129283905932746 1.0000000000000022 0.005821609406730155
v 0.005821609406726991 0.9999999999999978 0.7129283905932776
v 0.7129283905932731 2.220446049250313e-15 0.005821609406722383
v 0.0058216094067254365 -2.220446049250313e-15 0.7129283905932698
vt 1 0
vt 1 1
vt 0 1
vt 0 0
vn 0.7071067811865475 -6.594388326471855e-15 0.7071067811865476
usemtl none
f 13/13/4 14/14/4 16/15/4 15/16/4