# Made in Blockbench 4.12.6
mtllib xCrossBlock.mtl

o northFace
v -0.00823299897783114 0.9999999999999993 -0.008232998977831585
v -0.008232998977831363 -6.661338147750939e-16 -0.00823299897783003
v 1.008232998977831 6.661338147750939e-16 1.0082329989778318
v 1.0082329989778311 1.0000000000000007 1.0082329989778303
vt 1.4375 -0.4375
vt 1.4375 1
vt 0 1
vt 0 -0.4375
vn -0.7071067811865475 1.2560739669470201e-15 0.7071067811865477
usemtl none
f 1/1/1 2/2/1 3/3/1 4/4/1
o southFace
v 1.0082329989778311 1.0000000000000013 1.00823299897783
v 1.0082329989778314 1.0547118733938987e-15 1.008232998977832
v -0.008232998977831363 -1.2212453270876722e-15 -0.00823299897783003
v -0.008232998977831363 0.9999999999999989 -0.008232998977831807
vt 1.4375 -0.4375
vt 1.4375 1
vt 0 1
vt 0 -0.4375
vn 0.7071067811865475 -1.2560739669470201e-15 -0.7071067811865477
usemtl none
f 5/5/2 6/6/2 7/7/2 8/8/2
o eastFace
v 1.008232998977831 0.9999999999999994 -0.008232998977831807
v 1.008232998977831 -5.551115123125783e-16 -0.008232998977830475
v -0.00823299897783114 5.551115123125783e-16 1.008232998977832
v -0.00823299897783114 1.0000000000000004 1.0082329989778307
vt 1.4375 -0.4375
vt 1.4375 1
vt 0 1
vt 0 -0.4375
vn -0.7071067811865477 -9.420554752102651e-16 -0.7071067811865475
usemtl none
f 9/9/3 10/10/3 11/11/3 12/12/3
o westFace
v -0.008232998977830919 1.0000000000000018 1.0082329989778296
v -0.00823299897783114 1.7763568394002505e-15 1.008232998977833
v 1.0082329989778307 -1.7763568394002505e-15 -0.008232998977829364
v 1.008232998977831 0.9999999999999982 -0.008232998977832695
vt 1.4375 -0.4375
vt 1.4375 1
vt 0 1
vt 0 -0.4375
vn 0.7071067811865477 2.198129442157285e-15 0.7071067811865475
usemtl none
f 13/13/4 14/14/4 15/15/4 16/16/4