# Made in Blockbench 4.12.5
mtllib xCrossBlock.mtl

o westFace
v 0.8985885623730949 0 0.10937499999999989
v 0.8985885623730949 1 0.10937499999999978
v 0.19148178118654746 1 0.8164817811865474
v 0.19148178118654757 0 0.8164817811865475
vt 0.5 0.5
vt 0.5 1
vt 0 1
vt 0 0.5
vn 0.7071067811865476 1.1102230246251565e-16 0.7071067811865475
usemtl none
f 1/1/1 2/2/1 3/3/1 4/4/1
o eastFace
v 0.8946067811865476 0 0.10539321881345254
v 0.8946067811865474 1 0.10539321881345232
v 0.18749999999999992 1 0.8124999999999999
v 0.18750000000000008 0 0.8125000000000001
vt 0 1
vt 0.5 1
vt 0.5 0.5
vt 0 0.5
vn -0.7071067811865476 -2.220446049250313e-16 -0.7071067811865475
usemtl none
f 7/5/2 6/6/2 5/7/2 8/8/2
o southFace
v 0.8985885623730949 0 0.8593749999999999
v 0.8985885623730949 1 0.8593749999999999
v 0.19148178118654746 1 0.15226821881345243
v 0.19148178118654746 0 0.15226821881345243
vt 0 1
vt 0.5 1
vt 0.5 0.5
vt 0 0.5
vn 0.7071067811865475 0 -0.7071067811865476
usemtl none
f 11/9/3 10/10/3 9/11/3 12/12/3
o northFace
v 0.8946067811865477 1.1102230246251565e-16 0.8633567811865474
v 0.8946067811865476 1 0.8633567811865472
v 0.18749999999999983 0.9999999999999999 0.15625
v 0.1875 -1.1102230246251565e-16 0.15625000000000017
vt 0.5 0.5
vt 0.5 1
vt 0 1
vt 0 0.5
vn -0.7071067811865474 2.4651903288156624e-32 0.7071067811865477
usemtl none
f 13/13/4 14/14/4 15/15/4 16/16/4